<?xml version="1.0" encoding="utf-8"?>
<!-- Generator: Adobe Illustrator 16.0.0, SVG Export Plug-In . SVG Version: 6.00 Build 0)  -->
<!DOCTYPE svg PUBLIC "-//W3C//DTD SVG 1.1//EN" "http://www.w3.org/Graphics/SVG/1.1/DTD/svg11.dtd">
<svg version="1.1" id="Layer_1" xmlns="http://www.w3.org/2000/svg" xmlns:xlink="http://www.w3.org/1999/xlink" x="0px" y="0px"
	 width="1136.637px" height="643.182px" viewBox="0 0 1136.637 643.182" enable-background="new 0 0 1136.637 643.182"
	 xml:space="preserve">
<rect id="backgroundrect" fill="none" width="1136.637" height="643.182"/>
<title>status update</title>
<g>
	<title>Layer 1</title>
	<path id="svg_1" opacity="0.21" fill="#7450FE" enable-background="new    " d="M650.4,132.757
		c-70.761,0.54-138.73-15.45-203.73-33.27c-65-17.82-129.47-37.83-198.84-46c-44.62-5.28-95.4-4.45-130.48,16
		c-33.75,19.66-43.73,51.88-48.66,81.62c-3.71,22.38-5.52,45.86,7.54,66.23c9.07,14.13,24.69,25.73,35.68,39.19
		c38.26,46.84,14.54,107.11-23.4,155.51c-17.77,22.67-38.57,44.49-52.11,68.49s-19.18,51.11-5.79,74.6
		c13.28,23.29,43.54,40.061,76.08,51.45c66.1,23.14,143.17,27.7,218.23,29.17c166.14,3.24,332.71-6.64,498.82-16.51
		c61.479-3.65,123.229-7.33,183.479-17.15c33.46-5.45,67.931-13.43,91.75-30.6c30.24-21.8,36.681-57.12,15-82.34
		c-36.37-42.29-133-49.681-159-95.53c-14.31-25.239-1.569-54.37,17-78.91c39.94-52.65,108.34-100,109.95-158.63
		c1.11-40.25-34-79.28-86.68-96.43c-55.24-18-130.78-12.79-169.84,21.62C785.24,116.637,712.9,132.287,650.4,132.757z"/>
	<path id="svg_2" fill="#7450FE" d="M928.97,550.93c0,0-12.29-8.109-24.47-2.35c0,0,3.75,7.229,19.17,6.54L928.97,550.93z"/>
	<path id="svg_3" fill="#7450FE" d="M930.48,551.36c0,0,3.739,14.239-5.631,23.93c0,0-5.64-5.87-0.05-20.25L930.48,551.36z"/>
	<path id="svg_4" fill="#7450FE" d="M945.81,537.69c0,0-0.909-12.11-28.26-8.101c0,0-0.12,7.82,9.48,11.521
		C936.63,544.811,941.02,541.69,945.81,537.69z"/>
	<path id="svg_5" fill="#7450FE" d="M947.49,537.61c0,0,11.56,3.71,1.25,29.359c0,0-7.62-1.7-9-11.91S942.48,541.32,947.49,537.61z"
		/>
	<path id="svg_6" fill="#7450FE" d="M962.97,520.42c0,0,1.57-19.93-26.38-17.88c0,0-2,18,21.45,22.68L962.97,520.42z"/>
	<path id="svg_7" fill="#7450FE" d="M981.4,497.93c0,0-3.83-22.59-31.761-15.859c0,0-0.109,19.529,27.2,21.239L981.4,497.93z"/>
	<path id="svg_8" fill="#7450FE" d="M994.94,474.67c0,0-6.42-22-34.101-15.42c0,0,6.59,19.79,32.26,19.48L994.94,474.67z"/>
	<path id="svg_9" fill="#7450FE" d="M1007.76,451.95c0,0-6.27-22.83-33-16c0,0,8.92,21.689,31.23,19.87L1007.76,451.95z"/>
	<path id="svg_10" fill="#7450FE" d="M1016.03,430.37c0,0-4.82-27.92-29.74-21.74c0,0,7.229,25.4,27.9,25.8L1016.03,430.37z"/>
	<path id="svg_11" fill="#7450FE" d="M1023.77,404.3c0,0-5.779-28.15-31-20c0,0,9.891,26.601,29.221,23.851L1023.77,404.3z"/>
	<path id="svg_12" fill="#7450FE" d="M1028.57,380.03c0,0-9.19-28.141-28.681-27.381c0,0,9.4,29.73,27.001,33L1028.57,380.03z"/>
	<path id="svg_13" fill="#7450FE" d="M1031.62,356.36c0,0-10-33.881-25.87-31.271c0,0,6.93,25.9,25.3,36.55L1031.62,356.36z"/>
	<path id="svg_14" fill="#7450FE" d="M1033.4,328.08c0,0-9.37-28.23-25-29.36c0,0,6.369,27.78,24.68,36.69L1033.4,328.08z"/>
	<path id="svg_15" fill="#7450FE" d="M1035.24,301.8c0,0-11.69-28.26-22-28.9c0,0,5.08,27.83,21,33.54L1035.24,301.8z"/>
	<path id="svg_16" fill="#7450FE" d="M1036.54,277.23c0,0-7.18-30.7-17.521-33.24c0,0,1.41,25.11,16.48,35.54L1036.54,277.23z"/>
	<path id="svg_17" fill="#7450FE" d="M1040.4,245.14c0,0-7.561-24.46-15.931-28.19c0,0,1.66,28.84,14,34.18L1040.4,245.14z"/>
	<path id="svg_18" fill="#7450FE" d="M1043.66,224.07l1.53-43.14c0,0-15.62,32.56-2.681,50.75L1043.66,224.07z"/>
	<path id="svg_19" fill="#7450FE" d="M1055.75,181.2c0,0,11.26-31.5,14-33.26c0,0-22.1,20.44-19.939,46.73L1055.75,181.2z"/>
	<path id="svg_20" fill="#7450FE" d="M963.74,520.28c0,0,19.82-2.601,19.22,25.42c0,0-17.91,2.91-23.75-20.25L963.74,520.28z"/>
	<path id="svg_21" fill="#7450FE" d="M982.4,497.17c0,0,22.909-0.07,21,28.6c0,0-19.221,3.431-25.57-23.18L982.4,497.17z"/>
	<path id="svg_22" fill="#7450FE" d="M995.16,476.52c0,0,20.79-9.75,34.1,15.421c0,0-19.21,8.119-35.93-11.351L995.16,476.52z"/>
	<path id="svg_23" fill="#7450FE" d="M1008.22,452.16c0,0,21.29-10.37,33.79,14.21c0,0-22.17,7.64-35.54-10.32L1008.22,452.16z"/>
	<path id="svg_24" fill="#7450FE" d="M1015.75,430.98c0,0,20.49-19.58,36.85,0.22c0,0-20.939,16.1-37.79,4.14L1015.75,430.98z"/>
	<path id="svg_25" fill="#7450FE" d="M1022.61,403.63c0,0,20.62-20,36.84,0.92c0,0-23.141,16.431-37.57,3.28L1022.61,403.63z"/>
	<path id="svg_26" fill="#7450FE" d="M1026.47,379.229c0,0,15.88-25,34.57-19.41c0,0-16.47,26.471-34.4,25.291L1026.47,379.229z"/>
	<path id="svg_27" fill="#7450FE" d="M1031.15,356.2c0,0,16-31.49,31.13-26c0,0-11.53,24.199-31.54,31.31L1031.15,356.2z"/>
	<path id="svg_28" fill="#7450FE" d="M1032.25,326.47c0,0,16.45-24.78,31.86-21.76c0,0-13.45,25.13-33.45,28.93L1032.25,326.47z"/>
	<path id="svg_29" fill="#7450FE" d="M1033.5,301.19c0,0,12.75-27.8,23.12-28c0,0-6.13,27.61-22.26,32.72L1033.5,301.19z"/>
	<path id="svg_30" fill="#7450FE" d="M1036.03,276.63c0,0,14.17-28.17,24.819-28.22c0,0-7.25,24.08-24.35,30.69L1036.03,276.63z"/>
	<path id="svg_31" fill="#7450FE" d="M1038.16,246.87c0,0,10.6-23.3,19.38-25.94c0,0-5.3,28.4-18.21,32.12L1038.16,246.87z"/>
	<path id="svg_32" fill="#7450FE" d="M1044.92,223.25l23.69-36.08c0,0-6.07,35.6-27.141,43L1044.92,223.25z"/>
	<path id="svg_33" fill="#7450FE" d="M1061.18,184.1c0,0,27.54-19,28.53-22.08c0,0-14,26.62-40,31.32L1061.18,184.1z"/>
	<path id="svg_34" fill="#7450FE" d="M1062.83,175.55c0,0,31.61-30.38,39.68-30.35c0,0-26.069,1.19-40.439,28.74L1062.83,175.55z"/>
	<path id="svg_35" fill="#444053" d="M1038.47,251.38l1.15,0.15c5.939-46.5,14.6-74,24.39-77.37l-0.38-1.1
		C1053.25,176.66,1044.55,203.74,1038.47,251.38z"/>
	<path id="svg_36" fill="#444053" d="M1029.74,362.55l1.74,0.15c0.359-4.34,0.64-8.79,0.829-13.21
		c1.66-38.48,4.23-73.82,7.62-100.31l-1-1.25c-3.39,26.54-6.689,62.95-8.35,101.49C1030.4,353.8,1030.1,358.24,1029.74,362.55z"/>
	<path id="svg_37" fill="#444053" d="M896.51,573.06c0.311-0.13,30.94-13.81,62.73-46.439c18.622-19.107,34.098-41.047,45.85-65
		c14.69-29.93,23.65-66.71,26.66-102.439l-1.82,0.85c-6.739,80.2-43.26,135-72.29,164.85c-31.479,32.33-61.76,45.87-62.06,46
		L896.51,573.06z"/>
	<path id="svg_38" opacity="0.24" fill="#FFFFFF" enable-background="new    " d="M969.85,31.19v518.42
		c0,15.409-14.869,28-33.229,28H233.25c-18.36,0-33.23-12.54-33.23-28V31.19C200.02,15.75,214.89,0,233.25,0l703.33,1.71
		C954.94,1.71,969.85,15.8,969.85,31.19z"/>
	<path id="svg_39" fill="#3F3D56" d="M969.85,31.35v24H200.02v-24C200.02,14.036,214.056,0,231.37,0c0.01,0,0.02,0,0.03,0h707.11
		C955.82,0.005,969.85,14.04,969.85,31.35z"/>
	<circle id="svg_40" opacity="0.8" fill="#FA5959" enable-background="new    " cx="237.32" cy="27.67" r="11.08"/>
	<circle id="svg_41" opacity="0.8" fill="#FED253" enable-background="new    " cx="269.55" cy="27.67" r="11.08"/>
	<circle id="svg_42" opacity="0.8" fill="#8CCF4D" enable-background="new    " cx="301.78" cy="27.67" r="11.08"/>
	<g id="svg_43">
		<path id="svg_44" fill="#C1D5FF" d="M653.4,189.8v56c0,1.67-3.131,3-7,3H498.68c-3.859,0-7-1.35-7-3v-56c0-1.67,3.12-3.37,7-3.37
			H646.4C650.28,186.42,653.4,188.12,653.4,189.8z"/>
	</g>
	<rect id="svg_45" x="562.67" y="206.42" fill="#7450FE" width="76.96" height="2.72"/>
	<path id="svg_46" opacity="0.2" fill="#7450FE" enable-background="new    " d="M523.73,200.46
		c-10.08,0.006-18.246,8.181-18.24,18.261c0.004,6.121,3.075,11.832,8.18,15.209v-1.21c0.005-2.095,1.57-3.857,3.65-4.11
		c1.921,3.507,6.32,4.793,9.827,2.873c1.212-0.664,2.209-1.661,2.873-2.873c2.079,0.252,3.645,2.015,3.649,4.11v1.29
		c8.45-5.494,10.846-16.798,5.352-25.248C535.656,203.586,529.903,200.463,523.73,200.46L523.73,200.46z M530.89,223.6
		c-0.257,3.985-3.695,7.006-7.681,6.75c-3.626-0.234-6.515-3.123-6.749-6.75c-1.823-3.976-0.077-8.677,3.899-10.5
		c0.083-0.038,0.166-0.075,0.251-0.11c-0.251-0.391-0.387-0.846-0.391-1.31c0-1.331,1.079-2.41,2.41-2.41c0.004,0,0.007,0,0.01,0
		h0.17c-1.26,0.089-2.237,1.136-2.239,2.4c0.001,0.421,0.111,0.834,0.319,1.2h0.07c-0.015-0.16-0.015-0.32,0-0.48
		c-0.001-0.504,0.16-0.995,0.46-1.4c0.309-1.012,1.242-1.702,2.3-1.7h0.17c-0.749,0.051-1.43,0.451-1.84,1.08
		c0.393-0.265,0.856-0.404,1.33-0.4c1.331,0,2.41,1.079,2.41,2.41c0.005,0.09,0.005,0.18,0,0.27c3.468,0.928,5.88,4.07,5.88,7.66
		C531.646,221.449,531.379,222.571,530.89,223.6z"/>
	<rect id="svg_47" x="562.67" y="213.04" opacity="0.2" fill="#7450FE" enable-background="new    " width="76.96" height="2.72"/>
	<rect id="svg_48" x="562.67" y="219.66" opacity="0.2" fill="#7450FE" enable-background="new    " width="76.96" height="2.72"/>
	<rect id="svg_49" x="562.67" y="226.29" opacity="0.2" fill="#7450FE" enable-background="new    " width="76.96" height="2.72"/>
	<g id="svg_50">
		<path id="svg_51" fill="#C1D5FF" d="M480.899,299.47v56c0,1.66-3.12,3-7,3H326.179c-3.859,0-7-1.359-7-3v-56
			c0-1.67,3.12-3.37,7-3.37h147.74C477.779,296.1,480.899,297.8,480.899,299.47z"/>
	</g>
	<rect id="svg_52" x="389.25" y="316.1" fill="#7450FE" width="76.96" height="2.72"/>
	<path id="svg_53" opacity="0.2" fill="#7450FE" enable-background="new    " d="M350.32,310.13
		c-10.079-0.002-18.252,8.166-18.255,18.246c-0.002,6.132,3.077,11.855,8.194,15.234v-1.221c0.006-2.092,1.572-3.852,3.65-4.1
		c1.921,3.507,6.32,4.793,9.828,2.872c1.211-0.663,2.208-1.66,2.872-2.872c2.078,0.248,3.645,2.008,3.649,4.1v1.301
		c8.456-5.486,10.863-16.788,5.377-25.244C362.271,313.258,356.505,310.127,350.32,310.13z M357.47,333.271
		c-0.257,3.984-3.695,7.006-7.681,6.749c-3.626-0.233-6.515-3.123-6.749-6.749c-0.468-1.034-0.709-2.156-0.71-3.291
		c-0.001-3.195,1.914-6.08,4.86-7.319c-0.25-0.388-0.382-0.839-0.381-1.3c0-1.333,1.078-2.415,2.41-2.42h0.181
		c-1.328,0.09-2.332,1.239-2.242,2.567c0.024,0.363,0.131,0.716,0.312,1.033h0.08c-0.015-0.156-0.015-0.313,0-0.47
		c0.15-1.524,1.264-2.78,2.76-3.11h0.091c-0.748,0.056-1.428,0.455-1.841,1.08c0.392-0.26,0.851-0.399,1.32-0.4
		c1.337,0,2.42,1.083,2.42,2.42l0,0c0.005,0.089,0.005,0.18,0,0.27c4.229,1.116,6.754,5.448,5.638,9.679
		c-0.119,0.453-0.279,0.896-0.478,1.321L357.47,333.271z"/>
	<rect id="svg_54" x="389.25" y="322.72" opacity="0.2" fill="#7450FE" enable-background="new    " width="76.96" height="2.721"/>
	<rect id="svg_55" x="389.25" y="329.34" opacity="0.2" fill="#7450FE" enable-background="new    " width="76.96" height="2.72"/>
	<rect id="svg_56" x="389.25" y="335.96" opacity="0.2" fill="#7450FE" enable-background="new    " width="76.96" height="2.721"/>
	<g id="svg_57">
		<path id="svg_58" fill="#C1D5FF" d="M440.1,122.789v56c0,1.66-3.119,3-7,3H285.4c-3.85,0-7-1.36-7-3v-56c0-1.67,3.13-3.37,7-3.37
			h147.72C436.98,119.419,440.1,121.119,440.1,122.789z"/>
	</g>
	<rect id="svg_59" x="349.36" y="138.51" fill="#7450FE" width="76.96" height="2.72"/>
	<rect id="svg_60" x="349.36" y="145.13" opacity="0.2" fill="#7450FE" enable-background="new    " width="76.96" height="2.72"/>
	<rect id="svg_61" x="349.36" y="151.75" opacity="0.2" fill="#7450FE" enable-background="new    " width="76.96" height="2.72"/>
	<rect id="svg_62" x="349.36" y="158.37" opacity="0.2" fill="#7450FE" enable-background="new    " width="76.96" height="2.72"/>
	<path id="svg_63" opacity="0.2" fill="#7450FE" enable-background="new    " d="M310.4,132.54
		c-10.085,0.049-18.221,8.263-18.172,18.348c0.029,6.091,3.094,11.767,8.171,15.132v-3.09c0.005-2.095,1.57-3.858,3.65-4.11
		c1.921,3.507,6.321,4.793,9.828,2.873c1.212-0.664,2.208-1.661,2.872-2.873c2.082,0.249,3.649,2.014,3.65,4.11v3.16
		c8.449-5.494,10.846-16.798,5.352-25.248C322.375,135.648,316.595,132.522,310.4,132.54z M318.4,154.82
		c-0.063,0.116-0.145,0.22-0.24,0.31c-0.156,0.109-0.34,0.172-0.53,0.18h-0.37c-1.158,3.833-5.204,6.001-9.037,4.843
		c-3.046-0.921-5.136-3.721-5.153-6.903c0-1.25,0.328-2.477,0.95-3.56l-0.08-0.05c-0.839-0.998-0.733-2.482,0.24-3.35
		c0.466-0.266,0.973-0.451,1.5-0.55c1.582-0.469,2.935-1.505,3.8-2.91c0.024,0.366,0.024,0.733,0,1.1
		c0.602-0.654,1.62-0.696,2.274-0.094c0.005,0.005,0.01,0.009,0.015,0.014c0.19,0.269,0.408,0.517,0.65,0.74
		c0.251,0.133,0.526,0.212,0.811,0.23l1.819,0.23c0.753,0.02,1.479,0.283,2.07,0.75c0.315,0.353,0.551,0.769,0.689,1.22
		c0.538,1.235,0.938,2.527,1.19,3.85c0.255,1.335,0.062,2.716-0.55,3.93L318.4,154.82z"/>
	<g id="svg_64">
		<path id="svg_65" fill="#C1D5FF" d="M693.77,386.8v56c0,1.67-3.119,3-7,3H539.04c-3.86,0-7-1.35-7-3v-56
			c0-1.67,3.12-3.359,7-3.359h147.75C690.65,383.39,693.77,385.08,693.77,386.8z"/>
	</g>
	<rect id="svg_66" x="603.03" y="403.38" fill="#7450FE" width="76.96" height="2.72"/>
	<rect id="svg_67" x="603.03" y="410" opacity="0.2" fill="#7450FE" enable-background="new    " width="76.96" height="2.72"/>
	<rect id="svg_68" x="603.03" y="416.63" opacity="0.2" fill="#7450FE" enable-background="new    " width="76.96" height="2.72"/>
	<rect id="svg_69" x="603.03" y="423.25" opacity="0.2" fill="#7450FE" enable-background="new    " width="76.96" height="2.72"/>
	<path id="svg_70" opacity="0.2" fill="#7450FE" enable-background="new    " d="M564.09,397.42
		c-10.079,0.006-18.245,8.182-18.239,18.261c0.003,6.12,3.075,11.832,8.18,15.209v-3.09c0.01-2.091,1.574-3.848,3.649-4.1
		c1.921,3.507,6.321,4.793,9.828,2.872c1.212-0.664,2.209-1.66,2.872-2.872c2.078,0.247,3.645,2.007,3.65,4.1v3.17
		c8.45-5.494,10.846-16.798,5.352-25.248C576.017,400.546,570.264,397.423,564.09,397.42L564.09,397.42z M572.09,419.69
		c-0.06,0.12-0.142,0.229-0.24,0.319c-0.155,0.109-0.34,0.172-0.529,0.181h-0.38c-1.108,3.842-5.121,6.058-8.963,4.95
		s-6.059-5.12-4.951-8.962c0.162-0.563,0.392-1.103,0.684-1.608h-0.08c-0.839-0.998-0.733-2.482,0.24-3.351
		c0.466-0.266,0.973-0.451,1.5-0.55c1.58-0.466,2.934-1.498,3.8-2.9c0.025,0.367,0.025,0.734,0,1.101
		c0.603-0.654,1.621-0.696,2.275-0.094c0.005,0.004,0.01,0.009,0.015,0.014c0.188,0.269,0.405,0.513,0.65,0.729
		c0.248,0.14,0.525,0.222,0.81,0.24l1.82,0.23c0.754,0.015,1.481,0.278,2.069,0.75c0.315,0.352,0.551,0.769,0.69,1.22
		c0.539,1.235,0.938,2.526,1.19,3.85c0.239,1.321,0.038,2.685-0.57,3.881H572.09z"/>
	
		<linearGradient id="svg_71_1_" gradientUnits="userSpaceOnUse" x1="261.8452" y1="716.7422" x2="261.8452" y2="717.7435" gradientTransform="matrix(178.4723 0 0 -212.3223 -46301.8594 152787.0156)">
		<stop  offset="0" style="stop-color:#808080;stop-opacity:0.25"/>
		<stop  offset="0.54" style="stop-color:#808080;stop-opacity:0.12"/>
		<stop  offset="1" style="stop-color:#808080;stop-opacity:0.1"/>
	</linearGradient>
	<path id="svg_71" fill="url(#svg_71_1_)" d="M519.56,570.28L497.62,538.47c0,0-0.41-7.88-1.851-9.72
		c-1.439-1.84-0.31-5.93-0.31-5.93s1.54-2.25,0.21-2.46s-0.21-5.221-0.21-5.221l-0.1-8c0,0,1.229-7.68,0.21-9.52
		c-0.616-1.014-0.577-2.296,0.1-3.271c0,0,1.23-4.399,0-5.529c-1.229-1.131-0.93-8-0.62-13.4c0.311-5.4-2.149-8.49-2.149-9.31
		c0-0.82-8.101-8.79-8.101-9.511c0-0.72-5.13-3.68-8.21-4.5c-3.08-0.819-4.609-1.43-4.51-1.84s-4.82-2-4.82-2s-4.3-0.31-5.95-2.45
		c-1.649-2.14-6.649-2.779-6.8-2.79l-0.09-0.43l-0.09-0.46c0.38-0.65,0.74-1.32,1.07-2c0.1-0.21,0.189-0.41,0.279-0.62
		c1.805,0.008,3.568-0.54,5.051-1.57c1.465-1.224,2.353-3.003,2.449-4.909c0.086-1.89-0.324-3.769-1.189-5.45
		c-0.9-1.84-2.221-3.75-1.771-5.75c0.2-0.86,0.721-1.62,1-2.46c0.396-1.651,0.131-3.393-0.739-4.851
		c-0.771-1.479-1.851-2.79-2.721-4.229c-1.104-1.84-1.839-3.878-2.16-6c-0.065-1.127-0.336-2.231-0.8-3.26
		c-0.468-0.725-1.08-1.345-1.8-1.82c-3.203-2.286-7.066-3.459-11-3.34c-2.79,0.1-5.58,0.85-8.35,0.51
		c-1.656-0.289-3.285-0.714-4.87-1.27c-3.44-1-7.41-1.44-10.4,0.529c-2.99,1.971-4.189,5.84-6.22,8.87
		c-1.8,2.67-4.42,4.92-5.79,7.76c0-0.06,0-0.109,0-0.17c-0.33,0.66-0.585,1.354-0.76,2.07c-0.381,2.265-0.227,4.586,0.449,6.78
		c0.158,1.173,0.751,2.243,1.66,3c1,0.649,2.4,0.5,3.59,0.71c-0.05,0.189-0.1,0.39-0.14,0.58c-0.343,1.601-0.514,3.232-0.51,4.87
		c-0.004,10.367,6.805,19.506,16.74,22.47c0,0.21,0,0.42,0,0.62c-0.002,0.588-0.035,1.176-0.101,1.76l0,0
		c0,0-10.31-2.12-13.069-0.68c-2.761,1.439-8.211,2.55-9,3.37c-0.79,0.819-2.87,0.21-4.721,5c-1.85,4.79-2.05,9.72-4.399,12
		c-2.351,2.279-3.591,3.79-3.7,5.43c-0.11,1.64,0.31,2-0.61,2.55s-2.26,2.66-1.85,3.48c0.291,1.158-0.157,2.377-1.13,3.069
		c-0.987,0.698-1.531,1.866-1.431,3.07c0,0-0.62,2.25-2.05,2.76s-2.359,3.891-2.359,3.891l-4.65,5.35l-9.22-10.2
		c-1.438-1.585-3.888-1.71-5.48-0.28l-4.54,4.03c-1.747,0.424-3.326,1.365-4.53,2.7c-0.983,1.014-1.775,2.195-2.34,3.49
		l-2.479,2.229c-1.6,1.975-1.853,4.718-0.641,6.95l5.91,6.53v0.06c-2.095,0.175-4.087,0.984-5.71,2.32
		c-8.81,7.78-8.92,14.939-7.58,18.21s12.511,15.86,12.511,15.86s6.489,8.439,15.859,12.93l0,0l-0.07,0.07
		c-0.189,0.199-0.369,0.409-0.55,0.64l-0.149,0.2c-0.053,0.063-0.1,0.129-0.141,0.2l-0.17,0.239l-0.13,0.2l-0.18,0.3l-0.11,0.19
		l-0.21,0.4c0,0-0.05,0.09-0.07,0.13c-0.02,0.04-0.17,0.37-0.25,0.56l-0.09,0.21c0,0.13-0.1,0.271-0.16,0.4l-0.09,0.27
		c0,0.13-0.09,0.261-0.13,0.4l-0.09,0.29c-0.04,0.14-0.08,0.29-0.12,0.45c0,0.09-0.05,0.18-0.07,0.27
		c-0.02,0.09-0.109,0.49-0.159,0.74c-0.006,0.097-0.006,0.193,0,0.29c-0.041,0.175-0.071,0.352-0.091,0.53
		c0,0.119,0,0.239-0.05,0.369c-0.05,0.131-0.05,0.33-0.069,0.511c-0.021,0.18,0,0.25,0,0.39c0,0.141,0,0.38,0,0.58v0.36
		c0,0.319,0,0.649,0,1c-0.21,12,0.489,13.71,0.489,13.71c0.927,2.256,3.016,3.822,5.44,4.08c0.588,0.042,1.179,0.012,1.76-0.09
		c5.33-0.931,17.84-3.07,22.25-2.25c2.65,0.489,7.561-0.24,11.05-0.9l0.92-0.18l0.641,2l2-0.561l1.72,1l1.09,0.62
		c2,6.86,10.24,4.521,10.24,4.521l1.95,1.13l19.79,0.51c2.218,1.346,4.563,2.471,7,3.36c0.326,0.1,0.661,0.174,1,0.22
		c1.833,0.147,3.673,0.181,5.51,0.1c1.52,0,2.69-0.1,2.69-0.1s-0.2-5.37-0.49-11.391c6.134-0.151,12.253-0.651,18.33-1.5
		c10.569-1.859,15-11.47,16.6-16.6c0.479,2.098,0.813,4.227,1,6.37c0.432,1.872,0.979,3.716,1.64,5.52
		c0.576,1.457,1.336,2.835,2.261,4.101c7.79-2.66,3.069-6.65,1.43-8.391c-1.64-1.739,1.13-3.17,1.13-3.17s2.16-1.439,2-2.77
		s-0.31-2.76,6.67-2.66C520.03,576.05,519.56,570.28,519.56,570.28z M411.28,504.96c0.09,0.59,1.06,6.89,1.939,8.55
		c0.252,1.104,0.329,2.242,0.23,3.37c-4.13-0.33-8.431-0.51-8.431-0.51c0.124,0.151,0.2,0.335,0.221,0.53l-0.65-0.15l-0.95-0.23
		l7.62-11.569L411.28,504.96z M396.2,528.96l7.149,1.14l0.601,0.091c-0.198,1.117-0.322,2.246-0.37,3.38c0,0.1,0.16,0.229,0.39,0.38
		c-0.091,0.559-0.138,1.124-0.14,1.689c0.12,0.57,3.46,1.79,7.3,2.811c-0.06,0.2-0.11,0.399-0.16,0.58l0,0
		c-3.39-1.78-8.72-2.61-9.34-3.931c-0.62-1.319-18.76-7.67-18.76-7.67s-0.67-0.35-1.811-0.899l4.78,0.899l1.311-0.13
		c2.978,0.744,6.001,1.295,9.05,1.65V528.96z"/>
	<path id="svg_72" fill="#65617D" d="M496.22,574.73c0,0-2.85,17.18-17.279,19.72c-14.431,2.54-62.601,2-62.601,2
		s-27.54-4-37.5-27.23c-9.96-23.229-16.37-32.53-7.83-32.93c8.54-0.4,54.58,15.55,57.221,15.75
		C430.87,552.24,498.76,516.7,496.22,574.73z"/>
	<path id="svg_73" opacity="0.05" enable-background="new    " d="M496.22,574.73c0,0-2.85,17.18-17.279,19.72
		c-14.431,2.54-62.601,2-62.601,2s-27.54-4-37.5-27.23c-9.96-23.229-16.37-32.53-7.83-32.93c8.54-0.4,54.58,15.55,57.221,15.75
		C430.87,552.24,498.76,516.7,496.22,574.73z"/>
	<path id="svg_74" fill="#3F3D56" d="M367.03,593.8c0.899,2.25,2.962,3.825,5.37,4.101c0.581,0.039,1.166,0.005,1.739-0.101
		c5.28-0.91,17.681-3,22.051-2.229c2.63,0.489,7.5-0.24,11-0.891c2.3-0.43,4-0.84,4-0.84s-4.061-13.52-4.57-13.92
		s-18.33-11.12-18.33-11.12l-14.09-1l0,0c-1.894,0.285-3.603,1.292-4.771,2.811c-1.489,1.8-2.77,4.75-2.85,9.59
		C366.33,592.11,367.03,593.8,367.03,593.8z"/>
	<path id="svg_75" opacity="0.05" enable-background="new    " d="M367.03,593.8c0.899,2.25,2.962,3.825,5.37,4.101
		c-1.382-1.784-2.657-3.647-3.82-5.58l0.07-9.86c-0.584-5.491,1.476-10.933,5.55-14.66l0,0c0,0-7.42,0.51-7.62,12.4
		C366.38,592.09,367.03,593.8,367.03,593.8z"/>
	<path id="svg_76" opacity="0.1" enable-background="new    " d="M428.13,572.29l13.11-10.26l20.63-20.33l-5.59-0.25
		c-0.84,0.53-3.181,2.21-3.271,4.25c-0.1,2.479-5.569,0.17-8.42,1.59c-2.85,1.42-16.77,19.24-19.189,19.13s-4.37-1.24-5.381,0.49
		c-0.023,0.038-0.051,0.075-0.079,0.109L428.13,572.29z"/>
	<path id="svg_77" opacity="0.1" enable-background="new    " d="M369.4,570.63l1.42,0.65c10,4.27,22.25,13.21,23.17,14.84
		c0.56,1,7.689,5.32,13.189,8.56c2.301-0.43,4-0.84,4-0.84s-4.06-13.52-4.569-13.92c-0.511-0.399-18.32-11.12-18.32-11.12l-14.09-1
		l0,0C372.293,568.083,370.571,569.098,369.4,570.63z"/>
	<path id="svg_78" fill="#65617D" d="M341.74,541.5c1.319,3.25,12.399,15.75,12.399,15.75s7,9.15,17,13.42s22.261,13.21,23.17,14.84
		c0.591,1,8.53,5.82,14.12,9.11l1.261,0.729l2.77,1.61l1.47,0.84c0,0,3.4-2.729,6.79-5.479c3.391-2.75,6.681-5.44,6.73-5.59
		c0.1-0.311,1.42-3.761,1.109-4c-0.159-0.101-0.85-1.511-2.14-3.141c-1.362-1.813-3.134-3.28-5.17-4.28
		c-2.965-1.506-5.331-3.974-6.71-7c0,0-0.45-0.319-1.12-0.75c-1.387-0.942-2.937-1.62-4.57-2c-2.239-0.279-6.399-4.85-6.399-4.85
		c-1.641-1.06-3.01-2.487-4-4.17c-1.07-2.23-16.83-13-18.29-14l38.24,24.49l9.149,5.87l13.11-10.261l20.63-20.33l-6.81-0.3
		c-10-0.439-27.83-1.12-30.08-0.609c-1.831,0.428-3.72,0.55-5.591,0.359c0,0-5.079,0.23-8.43-1.54c-3.35-1.77-8.649-2.6-9.26-3.91
		c-0.61-1.31-18.601-7.619-18.601-7.619s-24.489-13-33.229-5.28S340.4,538.25,341.74,541.5z"/>
	<path id="svg_79" fill="#EE8E9E" d="M420.71,466.9l3.15,10.47l4.06,23.58l14.94,1l4.33-7.181l4.31-7.149c0,0,2.69-9.53,4.63-18.75
		c1.71-8.15,2.82-16.07,1-16.93c-1.649-0.761-2.729-3.511-3.439-6.46c-0.091-0.36-0.171-0.73-0.24-1.101
		c-0.501-2.502-0.835-5.034-1-7.58c0,0-31.311-1.63-26.94,11.28c0.784,2.202,1.184,4.522,1.181,6.86
		c-0.003,0.584-0.036,1.168-0.101,1.75C426.147,460.767,424.015,464.471,420.71,466.9z"/>
	<path id="svg_80" fill="#E3E8F4" d="M414.2,465.17l1.12,17.79l2.54,15.14l2.85,7l2.54,38.36c0,0,24.5,2.84,30.46,0
		c0.429-0.179,0.801-0.469,1.08-0.84c7.2-10.87,4.84-42.351,4.84-42.351l2.771-20.359l-1.83-10.55l-4.42-0.471l-3.41-0.359
		c0,0-0.771,0.939-1.87,2.41c-3,4-8.561,11.8-8.19,15.069c0.511,4.471-0.609,9-2.34,9.75c-1.729,0.75-3.149,1.94-3.45,0.721
		c-0.43-1.027-0.538-2.161-0.31-3.25c0.31-1.73-1.32-7-1.32-7s-2.74-6.2-2.54-8.841c0.2-2.64-0.3-5.689-1.12-6.399
		c-0.819-0.71-1.93-1.431-1-4.681c0.931-3.25-4-9.579-4-9.579L414.2,465.17z"/>
	<path id="svg_81" opacity="0.1" enable-background="new    " d="M446.57,509.59l1,30.391l5.87,3.26
		c0.431-0.179,0.805-0.473,1.079-0.851c7.2-10.87,4.841-42.35,4.841-42.35l2.739-20.33l-1.83-10.55l-4.42-0.47
		c1.71-8.15,2.83-16.061,1-16.921c-1.649-0.77-2.739-3.51-3.439-6.46l0,0l-3.18,21.49c0,0,0.27,1.931,0.359,3.931
		c0.131,1.269,0.043,2.551-0.26,3.789c-0.71,1.83-0.2,5.08-0.2,5.08c-1.83,3.23-2.75,9.21-3.19,15
		C446.34,502.28,446.57,509.59,446.57,509.59z"/>
	<path id="svg_82" fill="#21D397" d="M453.5,444.8c0,0,5.12,0.641,6.74,2.771s5.899,2.439,5.899,2.439s4.88,1.63,4.771,2
		c-0.11,0.37,1.43,1,4.479,1.83c3.051,0.83,8.13,3.76,8.13,4.48c0,0.72,8,8.63,8,9.449c0,0.82,2.431,3.86,2.131,9.25
		c-0.301,5.391-0.61,12.19,0.609,13.311s0,5.49,0,5.49c-0.668,0.97-0.707,2.24-0.1,3.25c1,1.83-0.21,9.449-0.21,9.449l0.109,7.931
		c0,0-1.119,5,0.2,5.18c1.32,0.18-0.2,2.44-0.2,2.44s-1.119,4.069,0.301,5.899s1.829,9.65,1.829,9.65l21.75,31.61
		c0,0,0.301,5.789-6.609,5.689s-6.811,1.32-6.601,2.641c0.21,1.319-1.93,2.75-1.93,2.75s-2.75,1.42-1.12,3.149
		c1.63,1.73,6.3,5.69-1.42,8.33c-0.915-1.253-1.668-2.617-2.24-4.06c-0.653-1.796-1.197-3.629-1.63-5.49c0,0-0.71-7.73-2.13-8.74
		s-1.22-5.9-1.22-5.9s2-4-0.811-5.59c-2.81-1.59-44.109-24.489-44.109-24.489l-1-30.391c0,0-0.71-22.46,3.56-30
		c0,0-0.51-3.25,0.2-5.08s-0.1-7.729-0.1-7.729L453.5,444.8z"/>
	<path id="svg_83" opacity="0.1" enable-background="new    " d="M426.86,457.02c0,0-10.221-2.109-13-0.689
		c-2.78,1.42-8.13,2.54-8.94,3.359c-0.81,0.82-2.85,0.2-4.68,5c-1.83,4.801-2,9.65-4.37,11.891s-3.561,3.76-3.66,5.38
		s0.31,2-0.61,2.54s-2.229,2.65-1.83,3.46c0.4,0.81,21.141,18.7,21.141,18.7s1,6.81,1.93,8.54c0.93,1.729-1,25.51-3.05,27.13
		s13.76,1.47,13.76,1.47s0.72-15.6,1.33-16.42s-0.41-17.479-0.41-17.479s-0.1-14.23,1.221-18c1.319-3.771,1.17-16.261,1.17-16.261
		s1.17-7.5,2.59-9.25S426.86,457.02,426.86,457.02z"/>
	<path id="svg_84" fill="#21D397" d="M426.56,456.71c0,0-10.22-2.1-13-0.68c-2.779,1.42-8.13,2.54-8.939,3.35
		c-0.811,0.811-2.851,0.21-4.67,5c-1.82,4.79-2,9.66-4.37,11.89c-2.37,2.23-3.561,3.761-3.66,5.391s0.3,2-0.61,2.54
		c-0.909,0.54-2.239,2.64-1.829,3.46c0.409,0.82,21.14,18.7,21.14,18.7s1,6.81,1.93,8.529c0.931,1.721-1,25.511-3.05,27.141
		s13.72,1.47,13.72,1.47s0.71-15.6,1.32-16.41c0.61-0.81-0.41-17.479-0.41-17.479s-0.1-14.23,1.22-18
		c1.32-3.771,1.181-16.261,1.181-16.261s1.16-7.5,2.58-9.25S426.56,456.71,426.56,456.71z"/>
	<path id="svg_85" opacity="0.1" enable-background="new    " d="M425.48,448.1c0.783,2.202,1.183,4.523,1.18,6.86
		c10.281,3.062,21.324-1.299,26.74-10.56c-0.502-2.502-0.836-5.034-1-7.58C452.4,436.82,421.11,435.19,425.48,448.1z"/>
	<path id="svg_86" fill="#EE8E9E" d="M410.04,432.04c0.026,12.824,10.443,23.199,23.267,23.173
		c12.824-0.026,23.199-10.443,23.173-23.267c-0.025-12.824-10.442-23.199-23.267-23.173c-10.959,0.021-20.411,7.703-22.673,18.427
		C410.205,428.791,410.037,430.414,410.04,432.04z"/>
	<path id="svg_87" fill="#3F3D56" d="M395.1,485.91l-5.59,1.729c0.269,1.135-0.174,2.319-1.12,3c-0.964,0.685-1.502,1.821-1.42,3
		c0,0-0.609,2.24-2,2.75c-1.39,0.511-2.33,3.86-2.33,3.86l-4.68,5.39c0,0-1.729,1.42-1.42,2.13c0.31,0.711-1.83,0.91-1.83,0.91
		l1.12,18.101l9.65,1.819l6-0.609l4.88-1.82l4.27-2.55l1.93-5l8.53-13L395.1,485.91z"/>
	<path id="svg_88" fill="#EE8E9E" d="M376.09,510.2c0,0-12.399-17.891-21.649-8.23s3.76,25.3,6.81,24.79s17.59-1.319,17.59-1.319
		L376.09,510.2z"/>
	<path id="svg_89" opacity="0.1" enable-background="new    " d="M410.54,427.2c0.642,0.054,1.244,0.325,1.71,0.77
		c0.78,0.83,0.82,2.3,1.85,2.82c0.382,0.162,0.802,0.21,1.21,0.14c2.7-0.39,4.261-3.439,6.86-4.279
		c1.518-0.383,3.119-0.245,4.55,0.39c0.58,0.195,1.098,0.54,1.5,1c0.87,1.13,0.261,2.78,0.66,4.14
		c0.561,1.891,2.811,2.641,4.771,2.881c1.96,0.239,4.149,0.39,5.449,1.859c0.874,1.11,1.237,2.538,1,3.93
		c-0.114,0.48-0.114,0.98,0,1.46c0.54,1.521,3.181,1.301,3.87,0.091c0.5-0.87,0.351-1.601,1.53-1.841
		c0.854-0.071,1.711,0.076,2.49,0.431c2.068,0.72,4.25,1.059,6.439,1c5.471-11.636,0.474-25.503-11.162-30.974
		c-11.635-5.47-25.502-0.473-30.973,11.162c-0.762,1.619-1.333,3.321-1.705,5.071L410.54,427.2z"/>
	<path id="svg_90" fill="#3F3D56" d="M440.05,441.67c-0.114-0.479-0.114-0.98,0-1.46c0.237-1.393-0.126-2.82-1-3.93
		c-1.3-1.471-3.5-1.61-5.45-1.86c-1.949-0.25-4.21-1-4.77-2.88c-0.4-1.36,0.21-3-0.66-4.14c-0.399-0.465-0.918-0.811-1.5-1
		c-1.43-0.639-3.031-0.779-4.55-0.4c-2.601,0.84-4.16,3.89-6.86,4.28c-0.408,0.069-0.828,0.021-1.21-0.141
		c-1-0.52-1.069-2-1.85-2.819c-1.24-1.311-3.58-0.471-5.09-1.44c-0.91-0.754-1.496-1.827-1.641-3c-0.676-2.181-0.83-4.489-0.45-6.74
		c0.881-3.779,4.261-6.37,6.421-9.6c2-3,3.14-6.81,6.159-8.81c3.021-2.001,6.9-1.54,10.311-0.53c1.57,0.562,3.187,0.987,4.83,1.27
		c2.74,0.34,5.5-0.41,8.27-0.5c3.907-0.128,7.746,1.039,10.92,3.32c0.715,0.467,1.321,1.08,1.78,1.8
		c0.465,1.021,0.735,2.12,0.8,3.24c0.323,2.1,1.05,4.117,2.141,5.939c0.859,1.431,1.93,2.73,2.699,4.21
		c0.864,1.446,1.126,3.174,0.73,4.811c-0.26,0.84-0.771,1.59-1,2.45c-0.45,2,0.86,3.88,1.75,5.71c0.863,1.672,1.273,3.54,1.189,5.42
		c-0.104,1.891-0.987,3.654-2.439,4.87c-1.51,1.05-3.312,1.596-5.15,1.56c-2.232,0.07-4.459-0.269-6.569-1
		c-0.776-0.353-1.631-0.5-2.48-0.43c-1.189,0.24-1,1-1.54,1.84C443.23,442.97,440.59,443.19,440.05,441.67z"/>
	<path id="svg_91" opacity="0.1" enable-background="new    " d="M427.52,572.9l13.11-10.261l20.63-20.33l-6.81-0.3
		c-0.8,0.719-1.312,1.703-1.44,2.771c-0.1,2.489-5.569,0.18-8.42,1.6c-2.85,1.42-16.77,19.24-19.189,19.12s-4.37-1.23-5.381,0.49
		l-0.079,0.12c-0.406,0.464-0.949,0.786-1.551,0.92L427.52,572.9z"/>
	<path id="svg_92" fill="#65617D" d="M401.09,572.19l6.59,21l1,3.3l3.141-0.86l6.92-1.899l30.8-8.461
		c3.87-0.184,7.654-1.207,11.09-3c5.821-3.268,12.486-4.723,19.14-4.18c4.07,0.38,8.601-1.37,12.36-8.32c0,0,8.53-25.199-13-32.409
		s-22.58,3.83-22.58,3.83l-0.29,0.18c-0.84,0.53-3.18,2.21-3.27,4.25c-0.101,2.479-5.57,0.17-8.42,1.59
		c-2.851,1.42-16.75,19.32-19.17,19.21s-4.37-1.24-5.381,0.49c-0.023,0.038-0.051,0.075-0.079,0.109c-0.75,1-3,1.28-4.511,1.32
		c-0.819,0-1.41,0-1.41,0l-0.189,0.061l-1.561,0.46L401.09,572.19z"/>
	<path id="svg_93" opacity="0.1" enable-background="new    " d="M402.8,531.34l3.17,0.51l1.32-13.109c0,0-1.45-0.221-3.271-0.641
		C404.5,519.92,403.4,527,402.8,531.34z"/>
	<path id="svg_94" opacity="0.1" enable-background="new    " d="M485.9,470.08c0,0,9.449-2.74,7.119,24.09
		c-2.329,26.83-19.819,43.8-19.819,43.8s-20.13,8.841-29.17,7.42c-9.04-1.42-15.63-1.729-15.63-1.729
		c-2.85-1.436-5.965-2.267-9.15-2.44c-5.08-0.2-15.75-3.35-16-4.37c-0.25-1.02,2.65-15.949,1.43-17.069c0,0,14.23,0.58,15.65,1.609
		c1.42,1.03,3.45,0.29,5,0s6.2-4.35,15.45-0.8c0,0,3.149,0.311,4.37-0.51c0.997-0.464,2.132-0.535,3.18-0.2
		c0.782-0.268,1.523-0.645,2.2-1.12c0.31-0.399,2.75,0,2.75,0c0.536,0.261,1.183,0.037,1.443-0.499
		c0.032-0.067,0.059-0.138,0.076-0.211c0.319-0.831,0.803-1.589,1.42-2.229c0,0,2.75-15.45,7.931-21.24
		c0.847-0.731,1.268-1.841,1.119-2.95C464.86,490,473.7,466.8,485.9,470.08z"/>
	<path id="svg_95" opacity="0.1" enable-background="new    " d="M412.25,568.85l13.42,16.25l0.09-0.1c0.101-0.3,1.42-3.76,1.11-4
		c-0.311-0.24-2.64-5.29-7.32-7.42c-2.37-1.164-4.361-2.978-5.74-5.23L412.25,568.85z"/>
	<path id="svg_96" opacity="0.1" enable-background="new    " d="M412.4,596.96l1.47,0.84c0,0,3.399-2.729,6.79-5.479
		c3.39-2.75,6.68-5.44,6.729-5.59c0.101-0.311,1.42-3.761,1.11-4c-0.16-0.101-0.85-1.511-2.14-3.141
		c-9.101-2.55-3.301,3.771-2.53,4.061c0,0-11.08-2.54-11.69,9.52C412.059,594.439,412.146,595.714,412.4,596.96z"/>
	<path id="svg_97" fill="#3F3D56" d="M423.65,602.07l1.939,1.12l19.61,0.51c2.199,1.336,4.523,2.454,6.939,3.34
		c0.327,0.1,0.662,0.173,1,0.22c1.82,0.143,3.646,0.176,5.471,0.101c1.5,0,2.659-0.101,2.659-0.101s-0.93-24.74-1.63-27.34
		c-0.33-1.25-2-1-3.6-0.35c-1.219,0.492-2.393,1.088-3.51,1.779c0,0-8.33,0.801-9.66,1.521s-5.08-0.41-7.42,0s-6.5-2.75-6.5-2.75
		c-11.38-3.76-5,3.25-4.17,3.56c0,0-11.07-2.54-11.681,9.521C412.49,605.26,423.65,602.07,423.65,602.07z"/>
	<path id="svg_98" fill="#565387" d="M452.01,592.52c0.21,5.12,4.2,11.48,6.59,14.841c1.5,0,2.66-0.101,2.66-0.101
		s-0.93-24.74-1.63-27.34c-0.33-1.25-2-1-3.6-0.35C454.06,583.26,451.84,588.39,452.01,592.52z"/>
	<path id="svg_99" opacity="0.1" enable-background="new    " d="M452.01,592.52c0.21,5.12,4.2,11.48,6.59,14.841
		c1.5,0,2.66-0.101,2.66-0.101s-0.93-24.74-1.63-27.34c-0.33-1.25-2-1-3.6-0.35C454.06,583.26,451.84,588.39,452.01,592.52z"/>
	<path id="svg_100" opacity="0.05" enable-background="new    " d="M448.66,593.2c1.35,4.939,1.33,10.49,3.479,13.84
		c0.327,0.1,0.662,0.173,1,0.22c1.82,0.143,3.646,0.176,5.471,0.101c1.5,0,2.659-0.101,2.659-0.101s-0.93-24.74-1.63-27.34
		c-0.33-1.25-2-1-3.6-0.35c-1.219,0.492-2.393,1.088-3.51,1.779C452.53,581.35,446.93,586.87,448.66,593.2z"/>
	<path id="svg_101" opacity="0.1" enable-background="new    " d="M380.99,543.06c0,0,9.74,3.16,18,14.391L380.99,543.06z"/>
	<g id="svg_102" opacity="0.1">
		<path id="svg_103" d="M460.16,421.1l-0.061,0.221c-0.094,0.29-0.207,0.574-0.34,0.85
			C459.859,421.802,459.993,421.443,460.16,421.1z"/>
		<path id="svg_104" d="M405.04,416.17c0.171-0.693,0.423-1.365,0.75-2c-0.05,0.17-0.1,0.35-0.14,0.53
			c-0.38,2.251-0.226,4.56,0.449,6.74c0.145,1.172,0.731,2.245,1.641,3c1.51,1,3.85,0.13,5.08,1.43c0.79,0.83,0.83,2.31,1.85,2.82
			c0.382,0.173,0.809,0.222,1.22,0.14c2.7-0.38,4.261-3.43,6.86-4.271c1.514-0.391,3.115-0.253,4.54,0.391
			c0.586,0.188,1.108,0.534,1.51,1c0.87,1.12,0.26,2.78,0.66,4.14c0.56,1.88,2.81,2.63,4.76,2.88s4.15,0.38,5.46,1.86
			c0.883,1.105,1.247,2.537,1,3.93c-0.109,0.478-0.109,0.974,0,1.45c0.54,1.53,3.181,1.3,3.87,0.1c0.5-0.88,0.351-1.6,1.53-1.85
			c0.853-0.067,1.709,0.08,2.49,0.43c2.11,0.731,4.337,1.07,6.569,1c1.837,0.026,3.637-0.519,5.15-1.56
			c0.653-0.528,1.19-1.186,1.58-1.93c-0.34,1.355-1.108,2.565-2.19,3.449c-1.509,1.051-3.312,1.597-5.149,1.561
			c-2.233,0.07-4.46-0.269-6.57-1c-0.779-0.354-1.637-0.502-2.49-0.43c-1.18,0.239-1,1-1.529,1.84c-0.69,1.21-3.33,1.43-3.87-0.09
			c-0.11-0.48-0.11-0.98,0-1.46c0.247-1.394-0.117-2.825-1-3.931c-1.311-1.47-3.5-1.609-5.46-1.859s-4.2-1-4.761-2.881
			c-0.399-1.359,0.21-3-0.659-4.14c-0.399-0.464-0.919-0.81-1.5-1c-1.43-0.639-3.031-0.779-4.551-0.399
			c-2.6,0.84-4.159,3.89-6.859,4.279c-0.412,0.07-0.835,0.021-1.221-0.14c-1-0.521-1.06-2-1.85-2.82
			c-1.229-1.31-3.57-0.47-5.08-1.439c-0.909-0.755-1.496-1.828-1.64-3C404.81,420.75,404.655,418.431,405.04,416.17z"/>
	</g>
	<path id="svg_105" opacity="0.1" enable-background="new    " d="M461.73,497.52c-1.86,2.511-4,4.841-5.631,7.5
		c-1.783,2.602-2.652,5.722-2.47,8.87c1.7-1.75,2.48-4.17,3.561-6.359c1.819-3.721,4.54-6.87,6.829-10.28
		c0.44-0.65,3.25-4.42,1.83-4.6C464.68,492.5,462.4,496.66,461.73,497.52z"/>
	<path id="svg_106" fill="#C1D5FF" d="M410.28,456.48L430.65,495c0.609,1.14-1.051,3.21-3.7,4.62l-101.67,53.77
		c-2.65,1.4-5.3,1.61-5.9,0.46l-20.37-38.51c-0.61-1.149,0.92-3.46,3.57-4.859l101.67-53.771
		C406.91,455.3,409.68,455.33,410.28,456.48z"/>
	
		<rect id="svg_109" x="350.885" y="486.88" transform="matrix(-0.884 0.4675 -0.4675 -0.884 945.5995 741.244)" fill="#7450FE" width="59.91" height="2.11"/>
	
		<rect id="svg_110" x="353.297" y="491.444" transform="matrix(-0.884 0.4675 -0.4675 -0.884 952.2777 748.7159)" opacity="0.2" fill="#7450FE" enable-background="new    " width="59.91" height="2.11"/>
	
		<rect id="svg_111" x="355.704" y="495.99" transform="matrix(-0.884 0.4675 -0.4675 -0.884 958.9369 756.1593)" opacity="0.2" fill="#7450FE" enable-background="new    " width="59.911" height="2.11"/>
	
		<rect id="svg_112" x="358.116" y="500.554" transform="matrix(-0.884 0.4675 -0.4675 -0.884 965.6151 763.6312)" opacity="0.2" fill="#7450FE" enable-background="new    " width="59.911" height="2.11"/>
	<path id="svg_113" opacity="0.2" fill="#7450FE" enable-background="new    " d="M324.93,511.02
		c-6.935,3.663-9.587,12.254-5.925,19.188c2.23,4.222,6.433,7.041,11.186,7.502l-1.12-2.12c-0.765-1.44-0.336-3.225,1-4.16
		c2.592,1.718,6.085,1.01,7.803-1.582c0.598-0.901,0.923-1.956,0.937-3.038c1.521-0.574,3.232,0.067,4,1.5l1.15,2.181
		c3.824-6.847,1.375-15.498-5.472-19.322c-4.208-2.351-9.32-2.406-13.578-0.148H324.93z M338.56,523.43
		c0.004,0.103-0.013,0.205-0.05,0.3c-0.069,0.132-0.173,0.242-0.3,0.32l-0.25,0.14c0.634,3.05-1.324,6.036-4.374,6.67
		c-3.05,0.635-6.036-1.324-6.67-4.374c-0.089-0.426-0.127-0.86-0.116-1.296h-0.069c-0.938-0.388-1.401-1.447-1.051-2.399
		c0.222-0.353,0.503-0.663,0.83-0.92c0.919-0.896,1.475-2.1,1.561-3.38c0.142,0.247,0.265,0.505,0.37,0.77
		c0.18-0.67,0.869-1.068,1.54-0.89c0.23,0.111,0.472,0.202,0.72,0.27c0.223,0.002,0.444-0.043,0.649-0.13l1.33-0.51
		c0.84-0.557,1.962-0.402,2.62,0.36c0.817,0.654,1.563,1.395,2.22,2.21C338.168,521.385,338.533,522.389,338.56,523.43
		L338.56,523.43z"/>
	<path id="svg_114" fill="#EE8E9E" d="M368.06,513.96c-0.1,13.41,27.65,16.26,27.65,16.26l7.09,1.12l3.17,0.51l1.32-13.109
		c0,0-1.45-0.221-3.271-0.641c-2.68-0.63-6.159-1.71-6.89-3.229C395.91,512.33,368.16,500.54,368.06,513.96z"/>
	<path id="svg_115" fill="#21D397" d="M485.65,468.02c0,0,9.449-2.739,7.119,24.091c-2.329,26.829-19.819,43.8-19.819,43.8
		s-20.13,8.84-29.17,7.42s-15.65-1.73-15.65-1.73c-2.849-1.436-5.964-2.266-9.149-2.439c-5.08-0.2-15.75-3.351-16-4.37
		c-0.25-1.021,2.649-16,1.43-17.07c0,0,14.229,0.58,15.649,1.61s3.45,0.29,5,0c1.551-0.29,6.2-4.36,15.45-0.8
		c0,0,3.15,0.31,4.37-0.511c0.997-0.463,2.133-0.534,3.18-0.199c0.783-0.268,1.523-0.645,2.2-1.12c0.311-0.4,2.75,0,2.75,0
		c0.528,0.265,1.172,0.05,1.436-0.479c0.037-0.073,0.065-0.151,0.085-0.231c0.32-0.833,0.803-1.595,1.42-2.24
		c0,0,2.75-15.44,7.93-21.24c0.849-0.727,1.27-1.833,1.12-2.939C464.61,487.94,473.46,464.8,485.65,468.02z"/>
	<path id="svg_116" fill="#FFFFFF" d="M878.16,136.14v56c0,1.67-3.12,3-7,3H723.4c-3.86,0-7-1.35-7-3v-56c0-1.67,3.119-3.37,7-3.37
		H871.18C875.04,132.8,878.16,134.47,878.16,136.14z"/>
	<g id="svg_117" opacity="0.1">
		<path id="svg_118" fill="#7450FE" d="M876.305,137.239v56c0,1.66-3.13,3-7,3h-147.73c-3.859,0-7-1.36-7-3v-56
			c0-1.67,3.12-3.37,7-3.37h147.75C873.175,133.869,876.305,135.569,876.305,137.239z"/>
	</g>
	<path id="svg_119" fill="#C1D5FF" d="M879.069,136.14v56c0,1.67-3.12,3-7,3H724.31c-3.86,0-7-1.35-7-3v-56
		c0-1.67,3.119-3.37,7-3.37h147.779C875.949,132.8,879.069,134.47,879.069,136.14z"/>
	<rect id="svg_122" x="787.42" y="152.77" fill="#7450FE" width="76.96" height="2.72"/>
	<rect id="svg_123" x="787.42" y="159.39" opacity="0.2" fill="#7450FE" enable-background="new    " width="76.96" height="2.72"/>
	<rect id="svg_124" x="787.42" y="166.01" opacity="0.2" fill="#7450FE" enable-background="new    " width="76.96" height="2.72"/>
	<rect id="svg_125" x="787.42" y="172.63" opacity="0.2" fill="#7450FE" enable-background="new    " width="76.96" height="2.72"/>
	<path id="svg_126" opacity="0.2" fill="#7450FE" enable-background="new    " d="M748.49,146.8
		c-10.079-0.019-18.266,8.136-18.285,18.215c-0.012,6.143,3.068,11.88,8.195,15.265v-3.09c0.009-2.093,1.572-3.854,3.649-4.11
		c1.921,3.507,6.321,4.793,9.828,2.872c1.212-0.664,2.208-1.66,2.872-2.872c2.077,0.256,3.641,2.017,3.65,4.11v3.17
		c8.455-5.486,10.862-16.788,5.377-25.243C760.416,149.937,754.664,146.808,748.49,146.8z M756.49,169.07
		c-0.127,0.31-0.436,0.507-0.771,0.49c-0.123,0.01-0.247,0.01-0.37,0c-1.139,3.833-5.169,6.017-9.002,4.877
		c-3.07-0.913-5.177-3.734-5.178-6.938c-0.002-1.248,0.322-2.476,0.94-3.56l-0.08-0.05c-0.834-1-0.729-2.48,0.239-3.35
		c0.467-0.264,0.974-0.45,1.5-0.55c1.583-0.462,2.938-1.496,3.801-2.9c0.029,0.366,0.029,0.734,0,1.1
		c0.602-0.654,1.62-0.696,2.274-0.094c0.005,0.004,0.011,0.009,0.016,0.014c0.229,0.23,0.38,0.55,0.659,0.73
		c0.247,0.143,0.525,0.221,0.811,0.23l1.81,0.24c1.295-0.132,2.482,0.729,2.761,2c0.543,1.233,0.942,2.525,1.189,3.85
		c0.25,1.334,0.046,2.715-0.58,3.92L756.49,169.07z"/>
	
		<linearGradient id="svg_127_1_" gradientUnits="userSpaceOnUse" x1="-788.8062" y1="6.6567" x2="-788.8062" y2="448.7767" gradientTransform="matrix(224.0093 -16.7817 -8.6056 -436.8408 184217.75 327504.2813)">
		<stop  offset="0" style="stop-color:#808080;stop-opacity:0.25"/>
		<stop  offset="0.54" style="stop-color:#808080;stop-opacity:0.12"/>
		<stop  offset="1" style="stop-color:#808080;stop-opacity:0.1"/>
	</linearGradient>
	<path id="svg_127" fill="url(#svg_127_1_)" d="M924.97,594.22c-1.38-5-2.279-9.38-2.279-9.38s0.06-5.49-2.561-9.51l-0.05-1.37l0,0
		l-0.4-10.16c0.63-1.864,1.42-3.671,2.36-5.399c1.7-3.25-0.57-14.851-0.57-14.851s-7.399-16.189-6.149-26.68
		s-15.67-45.79-15.67-45.79c-0.031-3.456,0.328-6.904,1.069-10.28c0.133-0.712,0.169-1.438,0.11-2.16
		c0.005-0.086,0.005-0.173,0-0.26c0,0,0,0,0,0.08c-0.5-6.87-6.43-19.55-6.43-19.55l-0.221-24.61c0,0,2.92-14.63-3.5-33.859
		c-2.239-6.711-3.71-12.101-4.67-16.26c-0.109-0.471-0.22-0.92-0.31-1.36c11.59-2.22,20.43-4,20.43-4s-7.84-28-12.6-32.8
		c-4.76-4.8-9-20.19-9-20.19s-3.141-19.89,0.47-25.87s3.75-16.16,3.75-16.16s8.52-6.71,9.51-9.58c0.99-2.87,2.57-9.31,2.44-12.66
		s-1.34-6.33-1-8.11c0.34-1.78-2.891-8.39-1.55-11.63c0.344-0.993,0.503-2.04,0.47-3.09v-0.13c-0.096-2.782-0.461-5.548-1.09-8.26
		c-2.616-2.045-5.636-3.514-8.86-4.31l-0.22-0.75l-0.57-2c-0.3-0.18-0.59-0.34-0.88-0.48v-0.72l-0.19-2.87l1.12-6.51
		c2.271-11.33-12.779-12.43-12.779-12.43c-0.968-1.687-2.529-2.953-4.381-3.55c-3.06-1,0.141,16.91,1.601,18
		c1.09,0.82,4.58,6.32,6.26,9l0,0l0.28,0.44c-0.238,0.233-0.459,0.484-0.66,0.75l0.72,3.87l0.11,0.6
		c-0.949,1.267-1.701,2.669-2.23,4.16c0,0,2.851,2.9,2.431,6.28c-0.42,3.38,1.13,7.52,1.21,7.74c-0.17-0.18-2.181-2.19-4.08-1.6
		c-1.9,0.59-7.23,2.4-7.23,2.4s-4,0.86-3.59,1.73s-2.55,4.88-2.55,4.88l-11.2-9.82c-0.12-0.3-0.24-0.6-0.35-0.91
		c-0.503-1.447-0.874-2.937-1.11-4.45c1.166-0.325,2.306-0.736,3.41-1.23c1.119-0.423,2.121-1.109,2.92-2c1-1.33,1.18-3.1,1.56-4.72
		c0.73-3.18,2.461-6.05,3.66-9.09c1.995-5.107,2.505-10.675,1.471-16.06c-0.239-1.667-0.87-3.253-1.841-4.63
		c-1.859-2.36-5.09-3.23-7.489-5.07c-2.4-1.84-4-4.74-6.78-6.09c-2.5-1.22-5.48-1-8.22-0.39c-5.374,1.089-10.495,3.175-15.101,6.15
		c-1.529,1-3.22,2.14-5,1.88c-1.56-0.22-2.739-1.42-3.79-2.57c-0.004-0.05-0.004-0.1,0-0.15l-0.13-0.13
		c-1.041,2.582-1.505,5.36-1.359,8.14c0,0.43,0,0.86,0.1,1.29c0,0.15,0,0.3,0,0.45c0.01,0.126,0.01,0.254,0,0.38l0,0
		c0.005,0.195-0.016,0.39-0.06,0.58c-0.222,0.563-0.563,1.072-1,1.49c-0.314,0.389-0.596,0.804-0.841,1.24
		c0-0.15,0.08-0.3,0.13-0.45c-0.659,1.029-1.007,2.228-1,3.45c-0.026,0.891,0.297,1.756,0.9,2.41c0.562,0.508,1.172,0.96,1.82,1.35
		c-0.175,1.191-0.238,2.396-0.19,3.6c0.321,7.31,4.44,13.92,10.86,17.43c0.14,0.3,0.27,0.6,0.41,0.91c1.52,3.58,2.72,7.77,2.41,11.7
		c0,0.29-0.061,0.58-0.101,0.86s-0.26,0.31-0.37,0.47l0,0c0,0-17.83,0.86-22.17-2.78s-10.24,9.69-10.24,9.69s-6.34,1.49-7.67,0.3
		c-1.33-1.19-8.779,0.16-8.779,0.16c-3.162-2.608-7.2-3.91-11.29-3.64c-2.572-1.799-5.387-3.224-8.36-4.229l0,0l-0.21-0.061l0,0
		c-1.29-0.414-2.656-0.536-4-0.36c0,0-9.05-6.91-11.76-10.7s-15.44-17.75-15.5-17.82l-0.07-0.69l-0.22-2.1
		c-0.359,0.073-0.724,0.12-1.09,0.14l-0.271-0.72c-0.774-2.022-1.718-3.976-2.82-5.84c0,0-0.1-2.66,0.65-3.35
		c0.75-0.69-0.72-10.38-0.72-10.38s-8.61-18.17-15.16-4.1c0,0-13,9.44-1.41,19.39c0,0,4.57,2,5.271,3.7c0.46,1.1,2.1,4.16,3.2,6.19
		c0.18,0.34,0.35,0.64,0.489,0.91l-0.12,0.11l0.23,1.73l0.09,0.67c-2.06,1.28-3.45,2.53-3.07,3.42
		c0.687,1.504,1.178,3.091,1.46,4.72c0,0,16.28,18.85,18.61,27.09c0,0,42.6,23.15,56.37,24.39l-1.8,12.44
		c-0.227,3.362-0.279,6.733-0.16,10.1c0.28,2.65-1.08,14.74-1.08,14.74s-1.7,17.77-3.61,20.331c-1.91,2.56-1.149,13.14-1.149,13.14
		c-0.286,5.099-1.009,10.164-2.16,15.14c-1.75,6.79,0,15.051,0,15.051s-6.33,16.18,9.88,4.75c0,0,8.14-0.82,17.52-1.5
		c0,0.31,0,0.619,0,0.939c0,1.21,0.061,2.52,0.101,3.9c0.22,9.119,0.649,21.68,1.43,31.17c1.39,16.77,7.78,49.77,7.78,49.77
		l0.64,16.7c-0.264,1.582-0.361,3.188-0.29,4.79c0.086,5.902,1.855,11.658,5.101,16.59l1.71,11.08c0,0,3.279,7.23,3.51,11.61
		c0.002,0.358-0.028,0.717-0.09,1.069c-0.093,0.565-0.12,1.14-0.08,1.71c0,5.061,3.54,17.051,3.54,17.051s0.649,12.189,2.5,12.83
		c1.59,0.539-1.811,7.109-2.83,9c-0.032-0.115-0.06-0.232-0.08-0.351c-0.13,0.25-0.21,0.38-0.21,0.38
		c-0.338,1.001-0.49,2.055-0.45,3.11c-0.149,1.709,0.705,3.351,2.19,4.21c3.55,2,5.479,3.68,2.569,4.5
		c-1.08,0.213-2.148,0.483-3.2,0.81c0-0.14-0.119-0.279-0.17-0.409c-0.826,0.386-1.287,1.282-1.12,2.18
		c0.089,1.446,0.517,2.851,1.25,4.1c3.181,6.431,5.301,8.83,5.301,8.83l1.39-0.21c-0.188,0.541-0.44,1.059-0.75,1.54
		c-0.507,0.785-1.192,1.439-2,1.91c-0.739,0.504-1.578,0.845-2.46,1c-2.005,0.135-3.855,1.126-5.08,2.72
		c-1.729,2.42-2.75,5.681,1,8.36l13.24,4c0,0,22.58,2.06,21.189-2.94c-1.39-5-2.279-9.38-2.279-9.38
		c-0.03-3.084-0.772-6.12-2.17-8.87c-0.25-0.449-0.53-0.88-0.841-1.29l0.79-0.12c0,0,1.21-11.199,3.32-13.409
		c0.49-0.5,0.59-0.881,0.46-1.17c0.2-0.62-0.38-1-1.13-1.12c0,0.14-0.09,0.29-0.14,0.439c-0.724-0.125-1.457-0.179-2.19-0.16
		c0,0-1-5.8,1.34-8c0.368-0.503,0.51-1.138,0.391-1.75c-0.014-0.798-0.128-1.591-0.341-2.359c-0.029,0.043-0.053,0.091-0.069,0.14
		c-1.41-5.25-5.78-13.51-5.78-13.51s-0.38-5.3,1-7.47s-1.3-28.82-1.3-28.82s0.06-12.93-1.82-18.87
		c-1.88-5.939,1.51-13.16,1.51-13.16s0-0.14-0.06-0.39v-0.09c0,0-0.11-0.79-0.29-2c0.004,0.043,0.004,0.087,0,0.13
		c-0.49-3.4-1.43-9.561-2-12.41c-0.89-4-0.72-23.52-0.72-23.52l3-8.44l6.399,14.1l6.95,18.86c0,0,3.23,3.91,3.46,8
		c0,0.2,0,0.4,0,0.6c-0.024,0.427-0.024,0.854,0,1.28c-0.014,2.411,0.739,4.765,2.15,6.72c0,0,2,9,4.64,11.16
		c2.641,2.16,2.82,6.62,2.82,6.62s3.61,13,5.16,15.21c1.3,1.891,1.569,7.21,1.62,8.84l0,0c0,0.301,0,0.48,0,0.48
		s0.619,4.66,0.75,8.59c0,0.48,0,1,0,1.4c0,0,0-0.07,0-0.101c0.033,1.07-0.054,2.14-0.261,3.19c0,0.06,0,0.12,0,0.189
		c0-0.233,0-0.453,0-0.659c-0.54,2.69-0.748,5.438-0.62,8.18c0.101,4.71,1,10.25,4,13.41c5.15,5.47,8.23,4.64,8.23,4.64
		s-2.1,7.16-5,8.69c-0.109,0.061-0.213,0.131-0.311,0.21c0-0.13-0.06-0.271-0.079-0.4c-0.617,0.74-0.893,1.706-0.761,2.66
		c-0.09,3.12,2.07,8.1,4,10.35c0.716,0.649,1.582,1.109,2.521,1.34c-0.141,0.111-0.288,0.215-0.44,0.311
		c-0.322,0.189-0.656,0.359-1,0.51c-0.467,0.224-0.966,0.373-1.479,0.44c-2.004,0.142-3.852,1.131-5.08,2.72
		c-1.72,2.42-2.75,5.67,1,8.36l13.24,4C903.86,597.271,926.4,599.22,924.97,594.22z"/>
	<path id="svg_128" fill="#2D293D" d="M839.47,605.87l-12.819-4c-3.591-2.69-2.601-5.95-0.931-8.37
		c1.167-1.572,2.958-2.562,4.91-2.71c0.856-0.157,1.669-0.498,2.38-1c0.791-0.469,1.453-1.125,1.931-1.91
		c0.868-1.498,1.305-3.208,1.26-4.939c0,0,13.72-4.601,17.68-0.681c0.703,0.713,1.302,1.521,1.78,2.4
		c1.356,2.766,2.078,5.8,2.109,8.88c0,0,0.881,4.38,2.221,9.38S839.47,605.87,839.47,605.87z"/>
	<path id="svg_129" fill="#2D293D" d="M901.11,597.26l-12.811-4c-3.6-2.68-2.609-5.939-0.939-8.35
		c1.159-1.58,2.955-2.571,4.909-2.71c0.497-0.077,0.979-0.229,1.431-0.45c0.345-0.147,0.679-0.317,1-0.51
		c3.47-2.08,3.189-6.851,3.189-6.851s13.73-4.6,17.681-0.68c0.532,0.528,1.002,1.115,1.399,1.75c2.54,4,2.49,9.521,2.49,9.521
		s0.88,4.399,2.22,9.39S901.11,597.26,901.11,597.26z"/>
	<path id="svg_130" opacity="0.1" enable-background="new    " d="M853.88,582.3c0.703,0.713,1.302,1.521,1.78,2.4l0,0l-20.72,3.21
		c0.868-1.498,1.305-3.209,1.26-4.94C836.2,582.97,849.92,578.38,853.88,582.3z"/>
	<path id="svg_131" opacity="0.1" enable-background="new    " d="M916.92,575.44l0.15,3.899c-3,5.46-18.721,4.891-23.37,2.391
		c0.345-0.147,0.679-0.318,1-0.511c3.47-2.08,3.189-6.85,3.189-6.85s13.73-4.6,17.681-0.68
		C916.085,574.221,916.537,574.808,916.92,575.44z"/>
	<path id="svg_132" fill="#65617D" d="M918.75,558.56c-0.909,1.732-1.669,3.539-2.27,5.4l0.529,14c-3.31,6-21.77,4.74-24.37,1.65
		c-2.6-3.09-5.569-11.29-2.79-12.82c2.78-1.53,4.801-8.68,4.801-8.68s-3,0.819-8-4.65s-4.061-18.08-3.29-21.12
		c0.77-3.04-0.511-13.09-0.511-13.09s-0.09-7.08-1.59-9.32c-1.5-2.239-5-15.21-5-15.21s-0.17-4.42-2.729-6.63
		c-2.561-2.21-4.5-11.16-4.5-11.16c-1.536-2.196-2.265-4.857-2.061-7.529c0.36-4.44-3.359-9.08-3.359-9.08l-6.75-18.86l-6.21-14.11
		l-2.851,8.45c0,0-0.14,19.48,0.73,23.521s2.34,14.779,2.34,14.779s-3.271,7.21-1.44,13.16s1.79,18.88,1.79,18.88
		s2.61,26.63,1.28,28.811c-1.33,2.18-1,7.47-1,7.47s7.85,15.28,5.63,17.49s-1.29,8-1.29,8s5-0.19,2.92,2
		c-2.08,2.189-3.21,13.41-3.21,13.41l-21.28,3.3c0,0-2.06-2.4-5.14-8.84c-3.08-6.44,0.311-5.851,3.13-6.67
		c2.82-0.82,1-2.511-2.49-4.511c-3.489-2-1.68-6.84-1.68-6.84s4.79-8.859,3-9.5c-1.79-0.64-2.439-12.83-2.439-12.83
		s-4.091-14.359-3.36-18.29c0.73-3.93-3.34-13.149-3.34-13.149l-1.66-11.09c-4.028-6.172-5.696-13.589-4.7-20.891l-0.62-17.21
		c0,0-6.229-33-7.58-49.819c-0.87-10.74-1.31-25.421-1.51-34.591c-0.11-5.14-0.149-8.55-0.149-8.55l76.069-10.89
		c0.267,3.811,0.875,7.589,1.82,11.29c0.939,4.159,2.37,9.55,4.55,16.26c6.23,19.24,3.43,33.87,3.43,33.87l0.24,24.6
		c0,0,7.35,16.181,6.15,21.9c-0.708,3.39-1.043,6.847-1,10.31c0,0,16.41,35.311,15.22,45.801c-1.19,10.489,6,26.689,6,26.689
		S920.4,555.31,918.75,558.56z"/>
	<path id="svg_133" opacity="0.05" enable-background="new    " d="M871.53,468.12l23.13-4
		C894.66,464.12,882.01,478.08,871.53,468.12z"/>
	<path id="svg_134" opacity="0.1" enable-background="new    " d="M890.4,441.54c0,0,1.109,8.19-3.811,11.479
		C886.62,453.02,895.59,451.26,890.4,441.54z"/>
	<path id="svg_135" opacity="0.1" enable-background="new    " d="M888,415.43c0,0-18.82,16.75-26,15.7S888,415.43,888,415.43z"/>
	<path id="svg_136" opacity="0.1" enable-background="new    " d="M843,476.8c0,0-14.63,3.92-14.84,9.86
		C827.95,492.6,843,476.8,843,476.8z"/>
	<path id="svg_137" opacity="0.05" enable-background="new    " d="M849.09,550.35c0,0-20.689,4.69-14.689,7.11
		s15.83,4.18,15.83,4.18S856.96,561.73,849.09,550.35z"/>
	<g id="svg_138" opacity="0.05">
		<path id="svg_139" d="M830.4,561.8c-1.077-0.632-1.812-1.716-2-2.95c-0.12,0.24-0.2,0.381-0.2,0.381s-1.76,4.84,1.68,6.84
			c0.4,0.229,0.771,0.449,1.12,0.67c0.62-0.141,1.28-0.25,1.92-0.44C835.66,565.53,833.79,563.8,830.4,561.8z"/>
		<path id="svg_140" d="M857.17,559.39c0.55-0.55,0.48-1.909,0.061-3.64c-0.797,1.598-1.143,3.381-1,5.16
			C856.428,560.341,856.749,559.821,857.17,559.39z"/>
		<path id="svg_141" d="M850.57,471.55c-0.69,2.122-1.08,4.33-1.16,6.561c0.341-1.552,0.826-3.068,1.45-4.53
			C850.86,473.58,850.75,472.8,850.57,471.55z"/>
		<path id="svg_142" d="M897.98,460.43c0.12-0.639,0.16-1.291,0.119-1.939c-0.21,1.33-0.35,2.56-0.439,3.64
			C897.76,461.58,897.86,461.01,897.98,460.43z"/>
		<path id="svg_143" d="M852.49,534.42c0.355-1.281,0.48-2.615,0.37-3.939c-0.591,1.599-0.87,3.296-0.82,5
			C852.147,535.11,852.298,534.754,852.49,534.42z"/>
		<path id="svg_144" d="M858.15,567.6c-0.961,3.607-1.63,7.286-2,11l-21.28,3.301c0,0-2.05-2.4-5.13-8.83
			c-0.271-0.57-0.49-1.08-0.67-1.54c-1.261,0.64-1.71,2,0.12,5.81c3.079,6.43,5.14,8.83,5.14,8.83l21.28-3.3
			c0,0,1.159-11.2,3.2-13.4C859.8,568.34,859.11,567.8,858.15,567.6z"/>
		<path id="svg_145" d="M828.68,536.93c0,0,0.65,12.2,2.44,12.84l0,0c0.82-2.05,1.34-4,0.54-4.27c-1.8-0.64-2.44-12.84-2.44-12.84
			s-4.1-14.36-3.359-18.28c0.739-3.92-3.341-13.15-3.341-13.15l-1.67-11.09c-4.027-6.171-5.696-13.588-4.699-20.89l-0.66-17.15
			c0,0-6.23-33-7.58-49.819c-0.87-10.74-1.311-25.43-1.51-34.59c0-1.66-0.061-3.131-0.091-4.371l-0.609,0.091c0,0,0,3.399,0.16,8.55
			c0.199,9.16,0.64,23.85,1.5,34.59c1.359,16.771,7.59,49.82,7.59,49.82l0.66,17.149c-0.997,7.303,0.672,14.719,4.699,20.891
			l1.66,11.09c0,0,4.08,9.22,3.34,13.15C824.57,522.58,828.68,536.93,828.68,536.93z"/>
		<path id="svg_146" d="M893.17,574.8c-1.828-2.446-3.092-5.267-3.7-8.26c-2.109,2,0.69,9.6,3.16,12.53
			c2.601,3.09,21.061,4.33,24.37-1.641l-0.13-3.37C912.28,579,895.63,577.74,893.17,574.8z"/>
		<path id="svg_147" d="M919.28,553.8c-0.909,1.732-1.669,3.539-2.271,5.4l0.09,2.479c0.37-0.92,0.9-2.149,1.641-3.609
			c0.506-1.412,0.71-2.914,0.6-4.41L919.28,553.8z"/>
		<path id="svg_148" d="M893.6,557.59c0.624-1.386,1.151-2.813,1.58-4.27c0,0-3,0.819-8-4.65c-3.63-4-4.13-11.75-3.83-16.85
			c-0.77,3-1.699,15.649,3.29,21.119C889.93,556.52,892.33,557.4,893.6,557.59z"/>
		<path id="svg_149" d="M882.87,518.74c0.443,3.47,0.697,6.962,0.76,10.46c0.064-0.556,0.164-1.107,0.3-1.65
			c0.771-3-0.51-13.08-0.51-13.08s-0.1-7.08-1.6-9.33s-5-15.21-5-15.21s-0.17-4.42-2.74-6.62c-2.57-2.199-4.5-11.159-4.5-11.159
			c-1.535-2.201-2.263-4.865-2.061-7.54c0.36-4.44-3.359-9.07-3.359-9.07l-6.76-18.87l-6.21-14.1l-2.86,8.43c0,0,0,1,0,2.69
			l2.33-6.851l6.21,14.101l6.74,18.859c0,0,3.72,4.63,3.359,9.07c-0.208,2.676,0.521,5.341,2.061,7.54c0,0,1.93,9,4.5,11.16
			c2.569,2.16,2.729,6.62,2.729,6.62s3.51,13,5,15.21S882.87,518.74,882.87,518.74z"/>
	</g>
	<path id="svg_150" fill="#FFCDD3" d="M885.2,192.87l-1.08,6.51l0.189,2.87l0.141,2.12l-7.351,1l-0.89-1.5l0,0
		c-1.63-2.71-5-8.22-6.08-9c-1.399-1.09-4.53-18.95-1.57-18c1.812,0.62,3.329,1.888,4.261,3.56
		C872.82,180.43,887.4,181.55,885.2,192.87z"/>
	<path id="svg_151" opacity="0.1" enable-background="new    " d="M884.45,204.37l-7.351,1l-0.89-1.5l0,0
		c1.959-2.414,5.35-3.108,8.1-1.66L884.45,204.37z"/>
	<path id="svg_152" fill="#DCE6F2" d="M886.4,207.8l-9.641,2.63l-0.26-1.44l-0.7-3.88c0,0,3.65-5.28,9.37-1.64l0.561,2L886.4,207.8z
		"/>
	<path id="svg_153" fill="#FFCDD3" d="M728.31,199.62l-10.17,6c0,0-0.43-0.8-1-1.92c-1.069-2-2.659-5.1-3.109-6.2
		c-0.681-1.69-5.101-3.7-5.101-3.7c-11.27-10,1.341-19.39,1.341-19.39c6.319-14.06,14.67,4.12,14.67,4.12s1.439,9.69,0.71,10.38
		c-0.73,0.69-0.62,3.34-0.62,3.34c1.068,1.872,1.981,3.829,2.729,5.85C728.12,199.02,728.31,199.62,728.31,199.62z"/>
	<path id="svg_154" opacity="0.1" enable-background="new    " d="M728.31,199.62l-10.17,6c0,0-0.43-0.8-1-1.92
		c1.41-1.28,6.45-5.7,8.16-5.57c0.818,0.077,1.642,0.077,2.46,0C728.12,199.02,728.31,199.62,728.31,199.62z"/>
	<path id="svg_155" fill="#DCE6F2" d="M729.49,202.72l-11.45,6.2l-0.33-2.5l-0.229-1.73c0,0,6.539-6.05,8.55-5.91
		c1.001,0.1,2.01,0.059,3-0.12l0.22,2.09L729.49,202.72z"/>
	<path id="svg_156" fill="#FFCDD3" d="M858.56,236.8c0,0-50.659,7.7-41.27,4.25c6.54-2.42,9-6.73,9.38-11.41
		c0.29-3.93-0.87-8.12-2.35-11.71c-1.328-3.157-2.97-6.172-4.9-9c0,0,38.07-22.89,31-3.14c-1.091,2.986-1.715,6.123-1.85,9.3
		c-0.114,3.154,0.347,6.302,1.359,9.29C851.604,229.238,854.591,233.537,858.56,236.8z"/>
	<path id="svg_157" opacity="0.1" enable-background="new    " d="M850.46,205.8c-1.091,2.987-1.715,6.124-1.85,9.3
		c-3.54,3.22-7.57,3.17-12.73,3.37c-4,0.15-8.319,1.28-11.56-0.51c-1.328-3.157-2.97-6.172-4.9-9
		C819.42,208.96,857.49,186.06,850.46,205.8z"/>
	<circle id="svg_158" fill="#FFCDD3" cx="834.44" cy="198.81" r="21.06"/>
	<path id="svg_159" opacity="0.1" enable-background="new    " d="M858.56,236.8c0,0-50.659,7.7-41.27,4.25
		c6.54-2.42,9-6.73,9.38-11.41c2.43-2.85,7.44-5,10.67-6.2c2.944-1.117,6.162-1.292,9.21-0.5c1.203,0.306,2.354,0.784,3.42,1.42
		C851.629,229.221,854.603,233.526,858.56,236.8z"/>
	<path id="svg_160" opacity="0.1" enable-background="new    " d="M886.4,207.8l-9.641,2.63l-0.26-1.44
		c2.021-3.01,5.711-4.433,9.23-3.56L886.4,207.8z"/>
	<path id="svg_161" opacity="0.1" enable-background="new    " d="M729.49,202.72l-11.45,6.2l-0.33-2.5
		c3.712-2.164,7.583-4.043,11.58-5.62L729.49,202.72z"/>
	<path id="svg_162" opacity="0.1" enable-background="new    " d="M883.62,364.28c-19.58,3.869-47.47,9-52,7.81
		c-3.74-1-15.521-0.409-25.771,0.341c-0.109-5.141-0.149-8.551-0.149-8.551l76.069-10.89
		C882.046,356.802,882.665,360.58,883.62,364.28z"/>
	<path id="svg_163" fill="#21D397" d="M903.1,358.899c0,0-64.46,13.631-71.51,11.781c-7.05-1.851-42.71,1.819-42.71,1.819
		c-15.67,11.399-9.57-4.771-9.57-4.771s-1.729-8.25,0-15.049c1.106-4.979,1.799-10.039,2.07-15.131c0,0-0.76-10.59,1.09-13.14
		c1.851-2.55,3.471-20.32,3.471-20.32s1.3-12.09,1-14.74c-0.301-2.65,0.149-10.09,0.149-10.09l1.8-12.46
		c-13.33-1.26-54.59-24.46-54.59-24.46c-2.27-8.23-18-27.1-18-27.1c-0.279-1.629-0.756-3.217-1.42-4.73
		c-1.17-2.79,14.53-9.06,14.53-9.06s12.4,14,15,17.84s11.39,10.72,11.39,10.72c1.313-0.19,2.652-0.07,3.91,0.35l0.2,0.06l0,0
		c2.888,1.015,5.612,2.443,8.09,4.24c3.982-0.25,7.906,1.059,10.94,3.65c0,0,7.21-1.34,8.489-0.15c1.28,1.19,7.431-0.28,7.431-0.28
		s5.68-13.33,9.89-9.68c4.21,3.65,21.47,2.8,21.47,2.8c2.181-3.14,7.69-5.55,11.15-6.81c2.942-1.121,6.161-1.299,9.21-0.51
		c1.32,0.323,2.576,0.871,3.71,1.62l10.86,9.85c0,0,2.859-4,2.47-4.88s3.479-1.72,3.479-1.72s5.061-1.79,7-2.4
		c1.94-0.61,3.78,1.44,3.95,1.61c-0.08-0.22-1.569-4.45-1.18-7.74s-2.37-6.28-2.37-6.28c5.61-15.44,20.061-3.25,20.061-3.25
		s1.92,8.25,0.619,11.49c-1.3,3.24,1.801,9.84,1.511,11.62c-0.29,1.78,0.89,4.75,1,8.11c0.109,3.36-1.391,9.79-2.341,12.66
		c-0.949,2.87-9.199,9.56-9.199,9.56s-0.141,10.1-3.631,16.08c-3.489,5.98-0.42,25.87-0.42,25.87s4.141,15.42,8.75,20.2
		C895.46,330.86,903.1,358.899,903.1,358.899z"/>
	<path id="svg_164" opacity="0.1" enable-background="new    " d="M804.03,246.2c0,0-2.17-5.76-4-6.22
		c-1.781-0.584-3.521-1.286-5.21-2.1l1-2.22c0,0,6.71,1.56,7.85,3.47S804.03,246.2,804.03,246.2z"/>
	<path id="svg_165" opacity="0.1" enable-background="new    " d="M768,234.66c-0.29,1.78-16,4-16,4l7.65-8.29l0,0l0.199,0.06l0,0
		C762.758,231.437,765.503,232.861,768,234.66z"/>
	<circle id="svg_166" fill="#575988" cx="721.54" cy="212.14" r="1.42"/>
	<circle id="svg_167" fill="#575988" cx="723.46" cy="214.9" r="1.42"/>
	<circle id="svg_168" fill="#575988" cx="725.33" cy="217.44" r="1.42"/>
	<circle id="svg_169" fill="#575988" cx="727.29" cy="220.2" r="1.42"/>
	<circle id="svg_170" fill="#575988" cx="893.95" cy="213.63" r="1.15"/>
	<circle id="svg_171" fill="#575988" cx="894.23" cy="216.23" r="1.15"/>
	<circle id="svg_172" fill="#575988" cx="894.48" cy="218.83" r="1.15"/>
	<path id="svg_173" opacity="0.1" enable-background="new    " d="M805.96,294.11c-0.17-0.2,41.62,48.6,71.45,18.32
		C877.4,312.43,828.77,320.94,805.96,294.11z"/>
	<path id="svg_174" opacity="0.1" enable-background="new    " d="M784.07,321.16c0,0,23.88-0.27,26.64,6.489l0.271,7.141
		c-1.351,0.824-3.031,0.889-4.44,0.17c-2.45-1.2-17.15-8-22.1-4.25L784.07,321.16z"/>
	<path id="svg_175" fill="#656691" d="M784.52,321.14c0,0,22.83-0.26,25.471,6.19l0.26,6.81c-1.294,0.784-2.9,0.845-4.25,0.16
		c-2.34-1.15-16.4-7.6-21.13-4.05L784.52,321.14z"/>
	<path id="svg_176" opacity="0.1" enable-background="new    " d="M795.1,268.87c2.653,5.546,5.964,10.754,9.86,15.51
		c4.239,5.258,9.305,9.791,15,13.42C819.96,297.8,795.62,272.13,795.1,268.87z"/>
	<path id="svg_177" opacity="0.1" enable-background="new    " d="M786.23,241.46c0,0,4.64,17,15.119,22.46L786.23,241.46z"/>
	<path id="svg_178" opacity="0.1" enable-background="new    " d="M780.2,243.43c-0.12-0.32-3,13.72,14,20.76
		C794.23,264.19,787.02,262.05,780.2,243.43z"/>
	<path id="svg_179" opacity="0.1" enable-background="new    " d="M883.89,227.9c-0.26,0,8.48,5.11,10.891,7.55
		C894.78,235.45,888.92,227.35,883.89,227.9z"/>
	<path id="svg_180" fill="#2D293D" d="M829.48,218.1c0.071,1.827,1.61,3.249,3.438,3.177c0.104-0.004,0.209-0.013,0.313-0.027
		c6.43,0.15,13.119,0.18,19-2.52c1.085-0.428,2.05-1.114,2.81-2c1-1.33,1.14-3.09,1.51-4.72c0.71-3.17,2.37-6,3.54-9.08
		c1.939-5.146,2.431-10.725,1.42-16.13c-0.224-1.661-0.833-3.247-1.779-4.63c-1.801-2.37-4.94-3.23-7.261-5.08
		c-2.319-1.85-3.89-4.75-6.569-6.1c-2.42-1.22-5.311-1-8-0.4c-5.214,1.097-10.17,3.181-14.601,6.14c-1.49,1-3.12,2.13-4.89,1.87
		c-1.55-0.23-2.71-1.48-3.75-2.65c-1.142,2.934-1.561,6.1-1.22,9.23c0.079,0.457,0.079,0.923,0,1.38
		c-0.203,0.556-0.52,1.063-0.931,1.49c-1.51,1.9-2.39,4.85-0.75,6.64c0.71,0.79,1.771,1.19,2.471,2c1.239,1.43,0.92,3.57,1,5.46
		c-0.048,0.662,0.144,1.318,0.539,1.85c0.724,0.618,1.716,0.815,2.62,0.52c0.884-0.304,1.818-0.43,2.75-0.37
		c1.003,0.287,1.878,0.908,2.48,1.76C826.75,209.52,828.06,213.62,829.48,218.1z"/>
	<g id="svg_181" opacity="0.1">
		<path id="svg_182" d="M855.65,215.05c-0.764,0.887-1.731,1.574-2.82,2c-5.84,2.7-12.521,2.68-18.95,2.52
			c-1.811,0.25-3.481-1.015-3.731-2.826c-0.015-0.104-0.024-0.209-0.028-0.314c-1.41-4.49-2.73-8.59-5.84-12.24
			c-0.601-0.849-1.472-1.469-2.471-1.76c-0.935-0.055-1.872,0.071-2.76,0.37c-0.904,0.295-1.896,0.098-2.62-0.52
			c-0.391-0.535-0.582-1.189-0.54-1.85c0-1.89,0.28-4-1-5.46c-0.689-0.8-1.76-1.2-2.47-2c-0.946-1.193-1.165-2.808-0.57-4.21
			c-1.05,1.83-1.449,4.14-0.08,5.65c0.711,0.78,1.78,1.18,2.471,2c1.24,1.43,0.93,3.57,1,5.47c-0.046,0.658,0.146,1.311,0.54,1.84
			c0.72,0.624,1.716,0.821,2.62,0.521c0.887-0.3,1.824-0.426,2.76-0.37c0.997,0.294,1.866,0.914,2.47,1.76
			c3.11,3.66,4.42,7.75,5.84,12.24c0.208,1.116,0.834,2.11,1.75,2.78c0.63,0.274,1.314,0.401,2,0.37c6.431,0.15,13.12,0.17,19-2.53
			c1.088-0.43,2.056-1.116,2.82-2c0.377-0.528,0.661-1.117,0.84-1.74C855.81,214.855,855.733,214.955,855.65,215.05z"/>
		<path id="svg_183" d="M813.53,185.97c0.273-0.318,0.479-0.689,0.6-1.09c0.085-0.456,0.085-0.924,0-1.38
			c-0.273-2.571-0.036-5.171,0.7-7.65l-0.13-0.14c-1.141,2.935-1.56,6.1-1.22,9.23C813.526,185.281,813.543,185.626,813.53,185.97z"
			/>
	</g>
	<path id="svg_184" opacity="0.1" enable-background="new    " d="M826.22,231c0,0,26.42,2.48,28.63-1.57"/>
	<path id="svg_185" opacity="0.1" enable-background="new    " d="M876.9,218.16c0,0,14.6-0.54,18,4.81"/>
	<path id="svg_186" fill="#FFFFFF" d="M161.71,172.05v56c0,1.67-3.13,3-7,3H6.98c-3.86,0-7-1.35-7-3v-56c0-1.67,3.12-3.37,7-3.37
		h147.75C158.58,168.68,161.71,170.38,161.71,172.05z"/>
	<g id="svg_187">
		<path id="svg_188" fill="#C1D5FF" d="M161.71,172.05v56c0,1.67-3.13,3-7,3H6.98c-3.86,0-7-1.35-7-3v-56c0-1.67,3.12-3.37,7-3.37
			h147.75C158.58,168.68,161.71,170.38,161.71,172.05z"/>
	</g>
	<rect id="svg_189" x="70.97" y="188.68" fill="#7450FE" width="76.96" height="2.72"/>
	<path id="svg_190" opacity="0.2" fill="#7450FE" enable-background="new    " d="M32.03,182.72
		c-10.079,0.005-18.245,8.181-18.239,18.26c0.003,6.121,3.075,11.832,8.18,15.209v-1.22c0.005-2.093,1.572-3.853,3.65-4.1
		c1.92,3.507,6.321,4.793,9.828,2.872c1.212-0.664,2.208-1.66,2.872-2.872c2.078,0.248,3.645,2.007,3.65,4.1v1.3
		c8.45-5.495,10.846-16.798,5.351-25.249C43.957,185.846,38.203,182.723,32.03,182.72z M39.18,205.85
		c-0.297,3.982-3.766,6.969-7.748,6.672c-3.569-0.266-6.407-3.104-6.673-6.672c-1.823-3.976-0.077-8.677,3.899-10.5
		c0.083-0.038,0.167-0.075,0.251-0.11c-0.257-0.385-0.393-0.838-0.39-1.3c0-1.331,1.079-2.41,2.41-2.41c0.003,0,0.006,0,0.01,0h0.17
		c-1.264,0.089-2.243,1.143-2.24,2.41c-0.003,0.418,0.107,0.83,0.32,1.19h0.07c-0.015-0.156-0.015-0.313,0-0.47
		c0-0.502,0.157-0.992,0.45-1.4c0.313-1.013,1.25-1.703,2.31-1.7h0.17c-0.748,0.056-1.427,0.455-1.84,1.08
		c1.11-0.735,2.605-0.43,3.34,0.68c0.259,0.392,0.398,0.851,0.4,1.32c0.005,0.09,0.005,0.18,0,0.27
		c4.227,1.127,6.739,5.467,5.612,9.693c-0.115,0.431-0.266,0.851-0.452,1.256L39.18,205.85z"/>
	<rect id="svg_191" x="70.97" y="195.3" opacity="0.2" fill="#7450FE" enable-background="new    " width="76.96" height="2.72"/>
	<rect id="svg_192" x="70.97" y="201.92" opacity="0.2" fill="#7450FE" enable-background="new    " width="76.96" height="2.72"/>
	<rect id="svg_193" x="70.97" y="208.54" opacity="0.2" fill="#7450FE" enable-background="new    " width="76.96" height="2.72"/>
	
		<linearGradient id="svg_194_1_" gradientUnits="userSpaceOnUse" x1="262.0376" y1="-26.6519" x2="262.0376" y2="378.1781" gradientTransform="matrix(205.3006 0 0 -404.8932 -53635.8281 290882.6563)">
		<stop  offset="0" style="stop-color:#808080;stop-opacity:0.25"/>
		<stop  offset="0.54" style="stop-color:#808080;stop-opacity:0.12"/>
		<stop  offset="1" style="stop-color:#808080;stop-opacity:0.1"/>
	</linearGradient>
	<path id="svg_194" fill="url(#svg_194_1_)" d="M263.4,343.26c-0.568-3.04-0.902-6.118-1-9.21c0-3.699-5-7-5-7s-3.11-7.2-5.15-8.25
		c-2.04-1.05-8.47-10.48-8.47-10.48c-0.073-1.858-0.75-3.642-1.93-5.08c-1.917-2.52-3.667-5.163-5.24-7.91l0,0
		c-0.86-1.06-0.43-1.8-1.72-7.94c-0.073-0.32-0.153-0.63-0.24-0.93c0-0.14-0.09-0.26-0.13-0.39c2.802-2.818,3.75-6.988,2.44-10.74
		c-0.238-0.729-0.662-1.385-1.23-1.9c-1.46-1.19-3.79-0.7-5.29-1.83l1.59-7.06c0.39-1.72,0.59-3.92-0.93-4.85
		c-0.566-0.272-1.164-0.474-1.78-0.6c-2.62-0.83-4.09-3.59-4.76-6.23c-0.652-2.546-0.828-5.19-0.52-7.8c0.29-2.5,1-4.94,1.3-7.45
		c0.481-4.652-0.637-9.329-3.17-13.26c-0.995-1.687-2.447-3.057-4.19-3.95c-1.61-0.72-3.48-0.81-5-1.76c-3.22-2-3.06-6.89-5.62-9.7
		s-7.11-2.78-10.85-1.82c-3.74,0.96-7.45,2.61-11.29,2.18c-2.47-0.27-4.79-1.39-7.26-1.65c-0.711-0.072-1.429-0.038-2.13,0.1
		l0.05-0.09c-1.84,0.33-3.52,1.35-3.95,3.09c-0.096,0.413-0.136,0.836-0.12,1.26c0,1,0.24,2.06,0.26,3
		c0.06,0.775-0.192,1.542-0.7,2.13c-0.49,0.53-1.22,0.81-1.7,1.35c-0.416,0.423-0.643,0.997-0.63,1.59c0,1.54,1.92,2.89,3.21,3.51
		l0,0c-0.35,0.35-0.69,0.71-1,1.08c-3.666,4.184-5.669,9.567-5.63,15.13c0.036,9.2,5.539,17.498,14,21.11
		c-0.06,0.19-0.11,0.37-0.18,0.56c-0.355,1.114-0.776,2.206-1.26,3.271c-1.81-0.61-3.797-0.391-5.43,0.6
		c-2.47,1.69-7.29,1.59-8.58,1.27s-14.69-2-15.76-1.59c-1.07,0.41-3.22-1.48-4.61,1.06c-1.39,2.54-2,3.92-3.43,4.55
		c-1.43,0.63-3.86,2.65-3.54,3.07c0.32,0.42-3.54,3-3.54,3s-3.32,3.49-5.25,3.92c-1.93,0.43-6,3.07-6,3.07l-4.72,3.7
		c0,0-3.54,0.53-2.47-1.9c1.07-2.43-1.93-5.51-1.93-5.51s-6-12.17-6-14.7c0-2.53-4.93-13.23-4.93-13.23l-0.61-0.06
		c-0.09-0.26-0.18-0.521-0.28-0.79c-0.9-2.55-2.07-5.67-3-7.51c-1.7-3.49-2.8-3.89-2.8-3.89s-20.8-15.62-34.31-10.86
		c-13.51,4.76,24.66,18.94,28.09,20.43c1.2,0.51,2.06,2.19,2.67,4.14c-3.037,1.486-5.586,3.807-7.35,6.69c0,0,8.25,18.3,8.46,22.85
		c0.21,4.55,5.69,17.25,5.69,17.25s2,9.42,13.08,8.89c0,0,15.22,2.79,18.54,0c3.32-2.79,6.33-5,7.94-5.31
		c1.19-0.39,2.235-1.129,3-2.12c0,0-5,31.74-7.5,34.5c-2.5,2.761-24.34,38.41-16.52,44.75c6.205,4.819,12.764,9.165,19.62,13
		c0.67,0.33,2.66-3,5.51-5.35c0,0.59,0,1.2,0,1.83c0.05,12.68,1.7,32,4.05,36.32c3.43,6.35,2,18.63,2,18.63
		c1.819,0.852,3.792,1.325,5.8,1.39c0.1,0.41,0.22,0.84,0.34,1.29c1.89,7.14,4.95,18.18,6.51,21.12c2.37,4.45,4.08,18.52,4.08,18.52
		s1.39,13.86,0.86,15.771c-0.21,0.729,0.7,6.479,2.12,13.78l0,0c-0.87,9.92-2.5,29.05-2.78,36l0,0c0,0.13,0,0.26,0,0.39v0.35
		c0,0.15,0,0.29,0,0.42l0,0c-0.036,0.433-0.036,0.868,0,1.301c0.121,0.667,0.072,1.354-0.14,2c-0.602,1.915-1.382,3.77-2.33,5.54
		c-0.05,0.18-0.63,1.38-1,2.689c-0.85,0.37-1.91,1.3-2.5,3.55c-1.07,4.13-2.68,15.561-2.68,15.561s-0.64,7-1.93,8.569
		c-1.29,1.57-2.57,11.53,6.54,12.801c9.11,1.27,13.08-4.841,13.08-4.841l-0.32-27.699l0,0c0.185-0.235,0.342-0.49,0.47-0.761v-0.06
		c0.06-0.14,0.13-0.271,0.19-0.43c0.06-0.16,0-0.131,0.08-0.2c0.08-0.07,0.09-0.221,0.13-0.34c-0.004-0.04-0.004-0.08,0-0.12
		c0.888-2.654,1.151-5.478,0.77-8.25c0,0,0-0.091,0-0.141v-0.22c0-0.07,0-0.14,0-0.21c0.005-0.063,0.005-0.127,0-0.19
		c-0.005-0.079-0.005-0.16,0-0.239v-0.17c0-0.181,0-0.37,0.06-0.561c-0.005-0.036-0.005-0.073,0-0.109c0-0.11,0-0.221,0-0.33
		c0.005-0.05,0.005-0.101,0-0.15c0-0.11,0.05-0.229,0.07-0.35v-0.08c0.08-0.41,0.19-0.82,0.3-1.25v-0.091l0.12-0.42l0,0
		c0.14-0.449,0.29-0.89,0.44-1.33v-0.09l0.15-0.41v-0.05c0.15-0.42,0.31-0.83,0.47-1.22v-0.11l0.15-0.35v-0.1l0.33-0.78l0,0
		l2.53,7.81c0,0,1.39,5.82,0.64,7.19s0.86,7.1,1.93,7.2l-1,7.2c-0.552,3.979-0.886,7.984-1,12c-0.07,0.449-0.14,0.84-0.19,1.14
		c-0.69,3.68,1,9.4,1,9.4c8.47,10,18.55,0.779,18.55,0.779s1.18-5.3,0-6.35c-1.18-1.05-0.64-4.87-0.64-4.87s0.53-9.42,0.64-16.3
		c0.11-6.88-5.63-12.93-5.63-12.93l-0.32,0.29c-1-2.69-2.23-5.841-2-7.25c0.43-2.431-1.18-28.141-1.18-28.141
		c0.588-6.877,0.712-13.786,0.37-20.68l0,0c0.14-1.17,0.27-2.32,0.4-3.43c0.65-5.53,1.17-10.261,1.38-12.73l0,0v-0.29
		c0.05-0.67,0.08-1.14,0.07-1.37c0-0.82,0-1.85,0.08-2.93c0.21-3,0.67-6.28,0.67-6.28l2.25-13.649c0,0,1.71-6.66,4.18-10.37
		l0.29-0.471l0,0c0.1-0.159,0.2-0.34,0.3-0.529v-0.08l0.3-0.57v-0.08c0.35-0.68,0.72-1.47,1.1-2.33l0.09-0.189l0.29-0.66l0.11-0.261
		l0.29-0.659c0-0.091,0.07-0.17,0.11-0.261c0.11-0.27,0.22-0.539,0.34-0.81l0.16-0.39c0.09-0.2,0.17-0.4,0.25-0.61l0.22-0.521
		l0.15-0.39l0.24-0.59c0-0.09,0.08-0.18,0.11-0.271c0.61-1.529,1.21-3,1.73-4.42l0,0c0.17-0.43,0.33-0.84,0.48-1.239
		c5.49,0.34,9.22,0.649,9.22,0.649s1.72-12.38,1.18-20.529c-0.37-5.561,0.66-12.561,1.35-16.431c0.08-0.43,0.15-0.81,0.21-1.149
		l0.15,0.119c2.69,2.11,4.61-4.869,4.61-4.869s-0.72-6.53-1.69-14.421c0-0.26-0.07-0.529-0.1-0.789
		c1.548,0.328,3.114,0.569,4.69,0.72c0,0,0.86-0.08,2-0.229c3.235,1.85,6.645,3.377,10.18,4.56l5.68-10.58
		c1.072-2.183,2.327-4.27,3.75-6.24c1.72-2.12,7.83-8.89,7.72-10.16c-0.11-1.27,2-8.569,4.18-11.85
		C262.25,350.46,263.52,343.8,263.4,343.26z M239.6,351.26c-2.25,0.95-4.4,6.24-4.5,7.83c-0.1,1.591-2.47,8.57-4.94,9.42
		c-2.26,0.78-6.6,4.761-7.29,5.4c-0.71,0.069-1.51,0.159-2.35,0.3c-0.94-6.68-1.87-12.2-2.47-13.32
		c-1.71-3.18,1.89-13.33,1.89-13.33s0.36-10.26,2.61-12.699c2.25-2.44,1.72-8.57,1.72-8.57s0.53-2.54,0.75-3.7s3.19,0,3.21,0l0,0
		c0,0,5.79,3.17,6.65,7.931c0.86,4.76,7.18,13,7.18,13s-1,2.85,0,4.34s-0.2,2.49-2.45,3.439L239.6,351.26z"/>
	<path id="svg_195" fill="#4C4981" d="M84.55,260.87c3.611-5.949,10.437-9.152,17.32-8.13v12.36H94.4l-5.92-1.53L84.55,260.87z"/>
	<path id="svg_196" opacity="0.1" enable-background="new    " d="M84.55,260.87c3.611-5.949,10.437-9.152,17.32-8.13v12.36H94.4
		l-5.92-1.53L84.55,260.87z"/>
	<path id="svg_197" fill="#AE6E79" d="M102.4,256.01l-9.19,6.45c0,0-0.08-1.3-0.31-3.06c-0.46-3.33-1.49-8.33-3.71-9.3
		c-3.38-1.48-41-15.63-27.66-20.38c13.34-4.75,33.79,10.83,33.79,10.83s1.06,0.36,2.74,3.85c0.89,1.83,2,4.95,2.94,7.49
		C101.81,254.19,102.4,256.01,102.4,256.01z"/>
	<polygon id="svg_198" fill="#4C4981" points="175.88,265.94 176.92,265.44 179.86,268.79 177.46,273.91 173.37,272.27 
		174.32,268.18 	"/>
	<path id="svg_199" fill="#444053" d="M161.96,565.87c0,0-2.64-0.311-3.7,3.8c-1.06,4.11-2.64,15.53-2.64,15.53s-0.63,7-1.9,8.55
		s-2.53,11.51,6.44,12.78c8.97,1.27,12.89-4.83,12.89-4.83l-0.32-27.7L161.96,565.87z"/>
	<path id="svg_200" fill="#444053" d="M193.27,567.12c0,0,5.65,6,5.55,12.899c-0.1,6.9-0.64,16.271-0.64,16.271s-0.52,3.8,0.64,4.86
		c1.16,1.06,0,6.33,0,6.33s-9.93,9.22-18.27-0.771c0,0-1.63-5.71-1-9.39c0.63-3.681,2.53-20.25,2.53-20.25L193.27,567.12z"/>
	<path id="svg_201" fill="#AE6E79" d="M207.27,440.8c0,0-5.71,16-8.14,19.641c-2.43,3.64-4.11,10.359-4.11,10.359l-2.22,13.63
		c-0.436,3.046-0.683,6.114-0.74,9.19c0.1,3.06-5.49,47.729-5.49,47.729l-8.87,11.301c0,0-3.91,7.92-3.28,11.199
		c0.63,3.28-0.42,8.551-1.69,10.131c0,0-0.21,10.35-0.53,12.68c-0.32,2.33,1.17,8.87,0,10c-1.17,1.13-16.68,0.63-17.11-1.271
		c-0.43-1.899,1.91-11.09,1.91-11.09l1.37-8.87c0,0,2.74-4.859,2.11-6.439s1.16-5.28,1.27-5.601c0.11-0.319,3-5.489,2.43-7.489
		c-0.57-2,3.27-44.57,3.27-44.57l10.88-76.36L207.27,440.8z"/>
	<path id="svg_202" opacity="0.1" enable-background="new    " d="M207.27,440.8c0,0-0.86,2.4-2.06,5.561
		c-1.88,5-4.59,11.819-6.08,14.08c-2.43,3.699-4.12,10.35-4.12,10.35l-2.21,13.63c-0.435,3.042-0.682,6.107-0.74,9.18
		c0,1.21-0.81,8.931-1.85,17.811c-1.6,13.59-3.64,29.93-3.64,29.93l-8.88,11.3c0,0-0.45,0.91-1,2.23c-1.11,2.59-2.68,6.8-2.26,9
		c0.63,3.28-0.42,8.56-1.69,10.14c0,0-0.21,10.36-0.53,12.67c-0.32,2.311,1.17,8.88,0,10s-16.68,0.641-17.11-1.27
		c-0.43-1.91,1.9-11.08,1.9-11.08l1.38-8.88c0,0,2.74-4.86,2.11-6.44c-0.63-1.58,1.16-5.28,1.27-5.6c0.11-0.32,3-5.49,2.43-7.5
		c-0.41-1.53,1.7-26.54,2.72-38.4c0.33-3.74,0.55-6.16,0.55-6.16l9.36-65.689l0.75-5.3l0.77-5.37L207.27,440.8z"/>
	<path id="svg_203" fill="#AE6E79" d="M197.76,599.67c0.1,1.16-14.89,2.85-17,1.58c-2.11-1.27,0-17,0-17l1-7.18
		c-1.06-0.11-2.64-5.811-1.9-7.19c0.74-1.38-0.64-7.18-0.64-7.18l-2.49-7.8l-1.52-4.761c-2.46-5.449-6-21-8.26-32.6
		c-1.4-7.29-2.29-13-2.09-13.77c0.53-1.9-0.85-15.73-0.85-15.73s-1.68-14-4-18.48c-1.54-2.939-4.55-14-6.42-21.09
		c-0.95-3.649-1.61-6.27-1.61-6.27s16-1.34,25.64-1.811c4.46-0.21,7.58-0.239,7.21,0.131c-0.37,0.369-0.45,2.3-0.43,5.09
		c0,7.25,1.05,20,2.12,23.42c1.48,4.75,3,19,2.32,20.38c-0.68,1.38-0.42,10.56-0.42,10.56c1.084,3.733,1.706,7.586,1.85,11.471
		c0.336,6.88,0.212,13.775-0.37,20.64c0,0,1.59,25.66,1.16,28.09c-0.43,2.431,3.38,10,3.38,11.51c0,1.511,0.96,11.511,0.96,11.511
		S197.66,598.51,197.76,599.67z"/>
	<path id="svg_204" fill="#AE6E79" d="M206.1,291.18l-1.82,2l-1.18,1.27l-6.92,7.35l-17.85,2l-9.48-2.54l-2.35-0.62
		c0,0,0-4.77,0.43-10.49c0.6-7.33,2.05-16.24,5.49-18.66c1.723-1.352,3.095-3.097,4-5.09c0.691-1.374,1.27-2.802,1.73-4.27
		c0.07-0.19,0.12-0.37,0.18-0.55c0.783-2.561,1.345-5.184,1.68-7.84c0,0,2.28-1.26,5.44-2.73c8.27-3.86,22.55-9.18,17.58,2.73
		c-0.732,1.746-1.354,3.536-1.86,5.36c-0.08,0.26-0.15,0.53-0.21,0.79c-1.66,6.64-0.56,10.66,0.68,12.88l0,0
		c0.213,0.38,0.454,0.745,0.72,1.09c0.334,0.467,0.739,0.878,1.2,1.22l2.06,13.05l0.17,1.08L206.1,291.18z"/>
	<path id="svg_205" opacity="0.1" enable-background="new    " d="M203.04,254.43C202.1,256.69,203.5,252.58,203.04,254.43
		c-3.76,2.68-12.63,10.3-17.62,10.3c-3.36,0-4.37-0.61-7.26-1.91c0.875-2.734,1.498-5.542,1.86-8.39
		C180.02,254.43,209.9,237.95,203.04,254.43z"/>
	<path id="svg_206" fill="#AE6E79" d="M210.63,240.55c0.007,11.783-8.891,21.666-20.61,22.89c-0.8,0.089-1.605,0.132-2.41,0.13
		c-12.703,0-23-10.297-23-23s10.297-23,23-23s23,10.297,23,23l0,0L210.63,240.55z"/>
	<path id="svg_207" opacity="0.1" enable-background="new    " d="M213.92,342.61l-3.27,8.56c0,0-2.68,0.12-6.84,0.25
		c-14,0.45-45,1-46.39-2.58c-0.317-0.913-0.479-1.873-0.48-2.84c-0.19-5.5,2.38-13.95,2.38-13.95s1.48-16.9,1.48-17.63
		s-1.27-12.62-1.27-12.62l2.53-9.5l7.08-5c0,0,3.17,4.86,5.07,5.28s4.44,2.75,4.44,2.75s6.22,3.8,8.23,1.68
		c2.01-2.12,17.64-11.4,17.64-11.4l8.24,9.08L213.92,342.61z"/>
	<path id="svg_208" fill="#FFFFFF" d="M213.92,343.88l-3.27,8.561c0,0-2.68,0.119-6.84,0.24h-0.41l-6.07,0.159
		c-11.16,0.25-26.55,0.32-34.58-0.85c-3-0.44-5-1-5.33-1.9c-0.187-0.507-0.314-1.034-0.38-1.569c-0.055-0.422-0.088-0.846-0.1-1.271
		c-0.19-5.5,2.38-14,2.38-14s1.48-16.9,1.48-17.64c0-0.74-1.27-12.57-1.27-12.57l2.53-9.5l4.87-3.41l2.21-1.55
		c0.742,1.113,1.554,2.179,2.43,3.19c0.678,0.917,1.589,1.636,2.64,2.08c1.9,0.43,4.44,2.75,4.44,2.75s6.22,3.81,8.23,1.69
		c1.54-1.62,11-7.43,15.42-10.08l2.22-1.33l1.11,1.23l7.13,7.86L213.92,343.88z"/>
	<path id="svg_209" opacity="0.1" enable-background="new    " d="M102.4,256.01l-9.19,6.45c0,0-0.08-1.3-0.31-3.06
		c4.54-1.91,7.3-6.15,8.1-7.51C101.81,254.19,102.4,256.01,102.4,256.01z"/>
	<path id="svg_210" fill="#21D397" d="M134.71,277.87l-2-0.52c0,0-3.28,3.48-5.18,3.9c-1.9,0.42-5.91,3.07-5.91,3.07l-4.65,3.69
		c0,0-3.49,0.53-2.43-1.9c1.06-2.43-1.9-5.49-1.9-5.49s-5.91-12.15-5.91-14.68c0-2.53-4.86-13.2-4.86-13.2s-6.13,11.93-17.32,8.13
		c0,0,8.13,18.27,8.34,22.81s5.6,17.22,5.6,17.22s2,9.4,12.88,8.87c0,0,15,2.79,18.27,0s6.23-5,7.82-5.3
		c1.172-0.393,2.199-1.128,2.95-2.11V289.8L134.71,277.87z"/>
	<path id="svg_211" opacity="0.1" enable-background="new    " d="M115.91,289.8c0,0,2.64,9.82,1,10.88L115.91,289.8z"/>
	<path id="svg_212" opacity="0.1" enable-background="new    " d="M203.81,352.681c-14,0.449-45,1-46.39-2.57
		c-0.317-0.914-0.479-1.873-0.48-2.84l45.89,2.42L203.81,352.681z"/>
	<path id="svg_213" opacity="0.1" enable-background="new    " d="M207.27,440.8c0,0-0.86,2.4-2.05,5.561
		c-5.83-0.36-13.55-0.73-20.88-0.78c-2.6,0-5.14,0-7.53,0.08c-4.141,0.003-8.27,0.463-12.31,1.37c-3.559,1.097-7.28,1.574-11,1.41
		c-0.95-3.65-1.61-6.271-1.61-6.271s16-1.34,25.64-1.81l0.77-5.37L207.27,440.8z"/>
	<path id="svg_214" fill="#65617D" d="M219.62,402.18l-1.79,3.801c0,0-0.25,1.13-0.57,2.93c-0.68,3.859-1.7,10.85-1.34,16.399
		c0.54,8.131-1.16,20.48-1.16,20.48s-38.86-3.271-50.26,0c-11.4,3.27-17,0-17,0s1.37-12.25-2-18.58c-2.32-4.34-3.94-23.6-4-36.25
		c0-5.85,0.29-10.279,1-11.17c2.32-2.859,12.25-31.37,12.25-31.37l2.26,0.12l6,0.32l34.39,1.81l5.39,0.28l0.57,1.75L219.62,402.18z"
		/>
	<path id="svg_215" fill="#4C4981" d="M236.73,389.5l0.32,3.38c0,0-17-5.54-16.16-12.35c0.84-6.811,0-6,0-6l13.68,1.16L236.73,389.5
		z"/>
	<path id="svg_216" opacity="0.1" enable-background="new    " d="M236.73,389.5l0.32,3.38c0,0-17-5.54-16.16-12.35
		c0.84-6.811,0-6,0-6l13.68,1.16L236.73,389.5z"/>
	<path id="svg_217" opacity="0.1" enable-background="new    " d="M127.27,292.53c1.74,1.478,3.791,2.544,6,3.12
		c-0.651-0.122-1.26-0.407-1.77-0.83c-1.22-0.87-2.38-1.81-3.55-2.73c-0.94-0.74-2.13-2-3.3-2.27
		C125.427,290.812,126.305,291.72,127.27,292.53z"/>
	<path id="svg_218" opacity="0.1" enable-background="new    " d="M127.53,296.98c0.551,0.618,0.995,1.325,1.31,2.09
		c0.273,0.874,0.401,1.786,0.38,2.7c0.138,1.296-0.022,2.606-0.47,3.83l-2.77-6.57c-0.47-1.12-1-2.24-1.52-3.32
		c-0.25-0.46-1.82-2.36-1.64-2.76C123.34,291.8,127.02,296.35,127.53,296.98z"/>
	<path id="svg_219" opacity="0.1" enable-background="new    " d="M203.67,333.42c1.87-0.218,3.622-1.027,5-2.31
		c-2.81,0.35-5.46,1.449-8.23,2c-2.565,0.599-5.255,0.354-7.67-0.7C195.92,333.99,200.25,334.04,203.67,333.42z"/>
	<path id="svg_220" opacity="0.1" enable-background="new    " d="M195.74,314.09c-0.506,0.079-1.022-0.051-1.43-0.36
		c-2.107-1.2-4.187-2.46-6.24-3.78c-2.167-1.204-4.209-2.617-6.1-4.22C186.16,309.52,190.06,312.72,195.74,314.09z"/>
	<path id="svg_221" opacity="0.1" enable-background="new    " d="M201.6,336.49c1.103,0.049,2.208-0.038,3.29-0.261
		c1.095-0.23,2.063-0.867,2.71-1.779c-0.392-0.094-0.806-0.029-1.15,0.18c-3.346,1.405-7.018,1.846-10.6,1.27
		C197.56,336.63,199.77,336.479,201.6,336.49z"/>
	<path id="svg_222" opacity="0.1" enable-background="new    " d="M181.59,385.521c-2.199,0.67-4.46,1.116-6.75,1.33
		c-1.78,0.081-3.564,0.047-5.34-0.101l-8.65-0.55l-4.33-0.28c-0.51,0-2.6,0-1.57-1c0.52-0.489,3.41-0.181,4.15-0.2
		c1.44,0,2.87-0.07,4.3-0.08c2.86,0,5.73,0,8.59,0.18C175.203,384.946,178.403,385.181,181.59,385.521z"/>
	<path id="svg_223" opacity="0.1" enable-background="new    " d="M171.58,389.8c-1.47-0.06-3.36,0.82-4.87,1
		c-1.688,0.205-3.391,0.275-5.09,0.21c-3.369-0.083-6.697-0.76-9.83-2C158.4,389.34,164.99,389.54,171.58,389.8z"/>
	<path id="svg_224" opacity="0.1" enable-background="new    " d="M153.08,394.33c0.64,0.13,1.271,0.3,1.89,0.51
		c3.64,1.05,7.52,0.13,11.19-0.78c-0.92,1.381-2.63,2-4.25,2.36c-2.712,0.679-5.536,0.78-8.29,0.3c-0.87-0.17-3-0.479-3.48-1.38
		C149.48,394.01,152.27,394.2,153.08,394.33z"/>
	<path id="svg_225" opacity="0.1" enable-background="new    " d="M173.53,401.14c1.091,0.222,2.169,0.502,3.23,0.841
		c4.1,1,8.36-0.381,12.48-1.32c4.953-1.13,10.033-1.601,15.11-1.4c-0.91,0-2.35,0.8-3.24,1.07c-1.17,0.35-2.35,0.67-3.53,1
		c-2.329,0.579-4.685,1.039-7.06,1.38c-4.793,0.694-9.645,0.905-14.48,0.63c-2.21-0.12-6,0.11-7.94-1
		C169.732,401.362,171.638,400.941,173.53,401.14z"/>
	<path id="svg_226" opacity="0.1" enable-background="new    " d="M175.06,270.89c0,0,0.21,9.73-1.38,14.16
		c-0.49,1.38-1.27,3.93-2.11,6.79c-0.93,3.17-1.94,6.72-2.72,9.47c-0.78,2.75-1.29,4.65-1.29,4.65s-3.57,29.061-4.5,42.9
		c0,0.24,0,0.49,0,0.72c-0.05,0.78-0.14,1.59-0.26,2.43c-2.06,13.75-13.92,34.95-17.9,36.65c-1.239,0.57-2.372,1.349-3.35,2.3
		c0-5.85,0.29-10.279,1-11.17c2.32-2.859,12.25-31.37,12.25-31.37l2.26,0.12c-0.055-0.422-0.088-0.846-0.1-1.27
		c-0.19-5.5,2.38-14,2.38-14s1.48-16.9,1.48-17.641c0-0.74-1.27-12.57-1.27-12.57l2.53-9.5l4.87-3.41
		c0.6-7.33,2.05-16.24,5.49-18.66c1.723-1.352,3.095-3.097,4-5.09c0.69,0.09-0.56-0.51-0.56-0.51L175.06,270.89z"/>
	<path id="svg_227" fill="#21D397" d="M176.92,265.44c-1.785-0.604-3.747-0.381-5.35,0.61c-2.43,1.68-7.18,1.58-8.45,1.26
		s-14.47-2-15.52-1.58c-1.05,0.42-3.17-1.48-4.54,1.05c-1.37,2.53-2,3.91-3.38,4.55c-1.38,0.64-3.81,2.64-3.49,3.06
		c0.32,0.42-3.48,3-3.48,3l7.7,25c0,0-5,31.679-7.39,34.419s-24,38.34-16.26,44.681c6.107,4.809,12.565,9.153,19.32,13
		c0.85,0.42,3.91-5.28,8.14-7.08s17.32-25.61,18.18-39.091c0.86-13.479,4.54-43.619,4.54-43.619s4.54-16.48,6.13-20.91
		c1.59-4.43,1.33-14.17,1.33-14.17L176.92,265.44z"/>
	<path id="svg_228" opacity="0.1" enable-background="new    " d="M219.62,402.18l-1.79,3.801c0,0-0.25,1.13-0.57,2.93
		c-0.336-0.034-0.653-0.171-0.91-0.391c-2.64-2.119-18.17-18.06-18.9-32.22c-0.55-10.439-0.29-19.43-0.12-23.439
		c0.06-1.26,0.1-2,0.11-2.19l0,0c0,0,12-14.58,10.66-19.75c-1.34-5.17-4.54-32.85-4.54-32.85l-0.47-3.63l-0.8-6.13l-1.89-14.86
		l2,0.46c0.334,0.467,0.739,0.878,1.2,1.22l2.06,13.05l7.13,7.86l1.16,47.84l-3.27,8.561c0,0-2.68,0.119-6.84,0.24h-0.41
		L219.62,402.18z"/>
	<path id="svg_229" fill="#21D397" d="M226.28,323.181c0,0-3-1.161-3.17,0c-0.17,1.159-0.74,3.689-0.74,3.689s0.52,6.13-1.69,8.561
		c-2.21,2.43-2.57,12.67-2.57,12.67s-3.55,10.14-1.87,13.31c0.61,1.149,1.56,6.92,2.51,13.819c0.6,4.311,1.2,9.061,1.74,13.391
		c1,7.89,1.67,14.399,1.67,14.399s-1.9,7-4.54,4.86c-2.64-2.14-18.17-18.08-18.91-32.21c-0.52-9.95-0.31-18.58-0.14-22.84
		c0.08-1.81,0.14-2.83,0.14-2.83s12-14.569,10.67-19.74c-1.33-5.17-4.54-32.85-4.54-32.85l-0.56-4.27l-0.59-4.6l-0.13-1l-1.91-14.74
		l0,0c0.34,0.07,12.19,2.75,13.75,4.31s11.19,3.8,11.19,3.8c2.971,0.81,5.269,3.168,6,6.16c0.09,0.29,0.16,0.6,0.23,0.92
		c1.27,6.13,0.85,6.86,1.7,7.92S226.28,323.181,226.28,323.181z"/>
	<path id="svg_230" opacity="0.1" enable-background="new    " d="M220.49,388.62c-4.34-0.84-10.73-2.85-10.59-7.25
		c0.14-4.13,5.1-5.61,8.85-6.141C219.4,379.54,219.95,384.29,220.49,388.62z"/>
	<path id="svg_231" fill="#AE6E79" d="M233.88,386.44c-0.17,0.369-0.89,0.689-1.84,1c-2.302,0.551-4.642,0.932-7,1.14
		c0,0-14.68-1.16-14.47-7.81c0.15-4.78,6.78-6,10.51-6.33c1.46-0.131,2.48-0.11,2.48-0.11S234.52,385.069,233.88,386.44z"/>
	<path id="svg_232" opacity="0.1" enable-background="new    " d="M233.88,386.44c-0.17,0.369-0.89,0.689-1.84,1
		c-3.83-5.121-9.17-11.69-11.78-12.271c0,0,0.3-0.29,0.79-0.729c1.46-0.131,2.48-0.11,2.48-0.11S234.52,385.069,233.88,386.44z"/>
	<path id="svg_233" fill="#21D397" d="M230.18,295.3l4.33,0.63c1.557,2.747,3.287,5.393,5.18,7.92c1.162,1.441,1.829,3.22,1.9,5.07
		c0,0,6.34,9.4,8.34,10.46s5.07,8.24,5.07,8.24s5,3.27,5,7c0.084,3.08,0.402,6.148,0.95,9.18c0.1,0.53-0.74,7.08-2.86,10.35
		c-2.12,3.271-4.22,10.561-4.11,11.83c0.11,1.271-5.92,8-7.61,10.141c-1.404,1.969-2.639,4.053-3.69,6.23l-5.6,10.56
		c0,0-11.83-17.42-16.16-18.37c0,0,4.86-4.65,7.29-5.49s4.75-7.82,4.86-9.4c0.11-1.58,2.21-6.869,4.43-7.819s3.38-1.899,2.43-3.38
		c-0.95-1.48,0-4.33,0-4.33s-6.23-8.24-7.08-13s-6.54-7.92-6.54-7.92l-3.28-8L230.18,295.3z"/>
	<path id="svg_234" opacity="0.1" enable-background="new    " d="M245.89,334.72c2.39-2.02,5.401-3.16,8.53-3.229
		c-2,0.35-4.12,0.78-5.58,2.18c-0.578,0.614-1.094,1.284-1.54,2c-0.51,0.72-4.58,5.899-5.23,5.09
		C241.1,339.521,245.07,335.42,245.89,334.72z"/>
	<path id="svg_235" opacity="0.1" enable-background="new    " d="M236.33,329.72c1.312-0.115,2.459-0.93,3-2.13
		c0.514-1.19,0.832-2.457,0.94-3.75c0.311-2.16,0.748-4.301,1.31-6.41c0.144-0.432,0.215-0.885,0.21-1.34
		c-0.052-0.45-0.184-0.887-0.39-1.29c-0.231-0.673-0.54-1.317-0.92-1.92c-0.79,0.89-1,2.88-1.33,4c-0.387,1.44-0.756,2.88-1.11,4.32
		C237.87,321.96,236.4,329.72,236.33,329.72z"/>
	<path id="svg_236" opacity="0.1" enable-background="new    " d="M232.59,287.09c-0.429,0.553-0.919,1.056-1.46,1.5
		c-1.69,1.37-4,2.53-4.24,4.69c0.061,0.706-0.024,1.417-0.25,2.09c-0.55,0.94-1.91,0.87-3,0.68c-0.91-0.085-1.781-0.406-2.53-0.93
		c-1.13-1-1.24-2.7-2.1-3.91c-1.054-1.266-2.633-1.975-4.28-1.92c-1.62-0.05-3.23,0.31-4.84,0.39c-1.038,0.05-2.079-0.02-3.1-0.21
		c-0.34-0.06-0.67-0.13-1-0.21c-0.723-0.18-1.428-0.421-2.11-0.72c-0.342-0.143-0.675-0.303-1-0.48c-1.088-0.552-2.098-1.249-3-2.07
		c-1.58-1.46-2.89-3.45-2.76-5.61c0.227-1.296,0.527-2.578,0.9-3.84c0.65-3.73-1.83-7.26-4.52-9.93c-1.07-1.05-2.21-2.09-3.28-3.17
		c-1.669-1.535-2.989-3.411-3.87-5.5c-0.706-2.22-0.94-4.563-0.69-6.88c0.25-2.354,0.319-4.725,0.21-7.09
		c-0.8-8.4-8-14.83-15.14-18.34l-0.31-0.16c8.45-9.484,22.989-10.322,32.473-1.872c9.484,8.451,10.322,22.989,1.871,32.473
		c-1.01,1.134-2.13,2.165-3.344,3.078c-0.08,0.26-0.15,0.53-0.21,0.79c-1.66,6.64-0.56,10.66,0.68,12.88l0,0
		c0.34,0.07,12.19,2.75,13.75,4.31c1.56,1.56,11.19,3.8,11.19,3.8C229.585,281.752,231.866,284.109,232.59,287.09z"/>
	<path id="svg_237" fill="#444053" d="M168.63,219.35c0.47-0.54,1.19-0.82,1.67-1.35c1.49-1.62,0-4.27,0.55-6.41
		c0.59-2.38,3.5-3.42,5.94-3.16c2.44,0.26,4.72,1.37,7.15,1.64c3.78,0.43,7.44-1.21,11.13-2.17s8.14-1,10.69,1.81
		c2.55,2.81,2.36,7.64,5.52,9.69c1.46,0.94,3.3,1,4.88,1.75c1.728,0.893,3.161,2.264,4.13,3.95c2.497,3.934,3.593,8.596,3.11,13.23
		c-0.26,2.5-1,4.94-1.28,7.44c-0.301,2.603-0.128,5.239,0.51,7.78c0.67,2.63,2.11,5.39,4.7,6.22c0.606,0.125,1.194,0.328,1.75,0.6
		c1.49,0.92,1.3,3.12,0.92,4.83l-1.6,7.05c1.48,1.13,3.77,0.64,5.21,1.83c0.568,0.512,0.986,1.169,1.21,1.9
		c1.41,4.058,0.178,8.564-3.1,11.34c-1.69,1.38-4,2.53-4.24,4.7c0.064,0.703-0.021,1.412-0.25,2.08c-0.55,0.94-1.91,0.87-3,0.68
		c-0.907-0.083-1.776-0.404-2.52-0.93c-1.14-1-1.24-2.7-2.1-3.91c-1.054-1.266-2.633-1.975-4.28-1.92
		c-1.63-0.05-3.23,0.31-4.85,0.39c-3.756,0.163-7.426-1.163-10.21-3.69c-1.705-1.366-2.719-3.416-2.77-5.6
		c0.231-1.299,0.532-2.584,0.9-3.85c0.65-3.72-1.83-7.26-4.51-9.92c-2.68-2.66-5.84-5.13-7.15-8.68c-1.64-4.4,0-9.3-0.49-14
		c-0.8-8.4-8-14.83-15.13-18.33C169.49,223.55,166.77,221.46,168.63,219.35z"/>
	<path id="svg_238" opacity="0.1" enable-background="new    " d="M225.1,291.87c-1.13-1-1.23-2.69-2.09-3.91
		c-1.062-1.26-2.643-1.964-4.29-1.91c-1.62-0.05-3.22,0.31-4.84,0.39c-3.749,0.171-7.415-1.136-10.21-3.64
		c-1.59-1.46-2.89-3.46-2.77-5.61c0.231-1.295,0.532-2.577,0.9-3.84c0.65-3.73-1.83-7.26-4.52-9.93c-2.69-2.67-5.83-5.13-7.15-8.68
		c-1.63-4.39,0-9.3-0.48-14c-0.8-8.4-8-14.84-15.14-18.34c-1.67-0.82-4.39-2.9-2.53-5c0.47-0.54,1.18-0.81,1.67-1.34
		c1.49-1.62,0-4.28,0.55-6.42c0.104-0.421,0.287-0.818,0.54-1.17c-1.787,0.17-3.309,1.371-3.89,3.07c-0.53,2.14,0.94,4.8-0.55,6.42
		c-0.48,0.53-1.2,0.8-1.67,1.34c-1.86,2.12,0.86,4.2,2.54,5c7.17,3.51,14.33,9.94,15.13,18.34c0.44,4.66-1.15,9.57,0.49,14
		c1.31,3.55,4.46,6,7.15,8.68c2.69,2.68,5.16,6.2,4.51,9.93c-0.368,1.263-0.668,2.545-0.9,3.84c-0.12,2.15,1.18,4.15,2.77,5.61
		c2.785,2.527,6.454,3.853,10.21,3.69c1.62-0.08,3.22-0.44,4.85-0.39c1.645-0.054,3.222,0.65,4.28,1.91c0.86,1.22,1,2.95,2.1,3.91
		c0.743,0.526,1.613,0.847,2.52,0.93c1.08,0.2,2.44,0.27,3-0.68c0.191-0.384,0.274-0.813,0.24-1.24
		C226.641,292.736,225.804,292.404,225.1,291.87z"/>
</g>
</svg>
