<?xml version="1.0" encoding="utf-8"?>
<!-- Generator: Adobe Illustrator 16.0.0, SVG Export Plug-In . SVG Version: 6.00 Build 0)  -->
<!DOCTYPE svg PUBLIC "-//W3C//DTD SVG 1.1//EN" "http://www.w3.org/Graphics/SVG/1.1/DTD/svg11.dtd">
<svg version="1.1" id="Layer_1" xmlns="http://www.w3.org/2000/svg" xmlns:xlink="http://www.w3.org/1999/xlink" x="0px" y="0px"
	 width="740px" height="680px" viewBox="0 0 740 680" enable-background="new 0 0 740 680" xml:space="preserve">
<title>Scene/Wireframe</title>
<desc>Created with Sketch.</desc>
<path id="Twisted-Leaf" fill="#06CE8C" d="M690.226,195.334c-0.533-0.388-1.799-0.525-2.388-0.642
	c-2.447-0.482-4.969-0.692-7.464-0.692c-7.692,0.012-15.511,0.767-23.076,2.074c-4.804,0.83-10.61,3.622-15.389,2.105
	c-8.324-2.642-16.737-2.512-24.636,1.26c-7.221,3.449-12.702,10-15.9,17.079c-0.482,1.068-2.441,5.001-2.995,7.652
	c-0.237,0.542-0.465,1.088-0.67,1.642c-0.583,1.572-1.104,3.173-1.59,4.776c-0.208,0.684-0.729,2.194-0.11,2.486
	c-0.989,1.827-1.866,3.709-2.598,5.652c-2.125,5.651-4.448,11.851-5.194,17.841c-0.277,2.218-0.287,4.449-0.03,6.671
	c0.127,1.098,0.074,3.307,0.818,4.142c1.581,1.772,2.393-0.708,2.214-1.89c-1.36-9.006,1.267-17.464,4.381-25.93
	c2.013-5.475,5.321-10.483,9.027-15.019c2.999-3.671,6.216-6.563,10.327-8.997c5.027-2.977,10.402-5.383,15.729-7.797
	c3.502-1.588,7.009-3.134,10.609-4.502c0.801-0.305,2.061-1.085,2.948-1.088c1.877-0.007,4.537,1.379,6.351,1.894
	c5.964,1.696,12.005,3.867,18.168,4.732c3.954,0.556,7.658-0.07,11.355-1.387c0.378-0.134,1.012-0.48,1.787-0.974
	c2.745-1.056,5.342-2.385,7.604-4.302c1.303-1.105,2.484-2.533,3.563-3.839c0.322-0.391,0.466-0.838,0.471-1.264
	c0.244-0.128,0.406-0.277,0.442-0.451C694.249,195.281,691.796,195.258,690.226,195.334"/>
<path id="Fill-16" fill="#63F7C2" d="M65.273,302.541c-1.509,1.222-2.99,2.471-4.434,3.77c-1.101,0.99-3.048,2.175-3.443,3.675
	c-0.411,1.559,0.886,3.018,1.91,3.96c5.417,4.983,11.517,8.353,19.023,8.913c11.558,0.863,21.617-2.088,31.645-7.896
	c7.044-4.08,11.71-10.114,12.729-18.262c8.389,3.487,16.502,8.292,23.397,14.19c3.402,2.911,6.332,6.135,9.042,9.708
	c1.736,2.29,3.415,4.616,4.973,7.032c0.677,1.049,1.366,2.911,2.484,3.515c1.313,0.71,2.899-0.403,2.834-1.862
	c-0.054-1.214-1.366-2.624-1.979-3.617c-1.019-1.649-2.053-3.288-3.142-4.891c-1.762-2.597-3.583-5.156-5.569-7.586
	c-4.463-5.459-10.142-9.969-16.029-13.814c-11.294-7.378-23.689-12.026-37.431-12.42c-8.45-0.242-15.559,2.645-22.785,6.956
	C74,296.596,69.356,299.235,65.273,302.541"/>
<path id="Leaf" fill="#63F7C2" d="M174.883,266.855c-8.806-9.068-17.642-18.023-27.48-26.009
	c-5.798-4.706-11.908-8.984-17.893-13.446c0.69,0.605,1.368,1.227,2.028,1.865c-1.868-1.268-4.313-1.984-6.293-3.158
	c-2.209-1.31-4.32-2.807-6.392-4.316c-4.043-2.946-8.025-5.948-12.181-8.74c-4.63-3.11-9.429-5.985-14.138-8.979
	c-3.997-2.541-8.042-5.321-12.317-7.398c-2.33-1.132-4.666-2.474-7.005-3.654c-0.783-0.395-8.729-5.413-8.709-5.427
	c0.439-0.331,4.438,1.548,5.056,1.8c1.806,0.738,3.534,1.62,5.271,2.5c-0.953-1.88-1.708-3.855-2.119-5.935
	c-0.127-0.642-1.144-5.314-0.623-5.706c0.26-0.196,2.794,8.164,2.924,8.967c0.105,0.652,0.09,1.593,0.304,2.211
	c0.345,0.998,0.328,0.697,1.088,1.259c1.393,1.031,3.242,1.675,4.75,2.537c0.813,0.454,3.331,2.253,4.847,2.767
	c4.587,2.228,9.237,5.656,13.596,8.502c-1.144-2.15-2.015-4.398-2.649-6.754c-0.151-0.559-1.78-5.577-1.385-5.875
	c0.445-0.335,3.549,7.328,3.733,8.053c0.342,1.348,0.413,2.848,0.84,4.159c0.469,1.439,1.934,1.949,3.254,2.788
	c4.857,3.086,9.548,6.366,14.16,9.795c5.033-8.951-0.77-19.759-5.661-27.27c-3.525-5.412-8.271-10.053-13.282-14.104
	c-6.688-5.407-14.339-9.726-21.981-13.677c-8.904-4.604-18.528-7.456-28.534-8.773c-5.233-0.689-10.586-0.67-15.873-0.449
	c-2.582,0.108-5.061,0.45-7.535,1.292c-1.115,0.38-2.193,0.859-3.244,1.395c-0.798,0.408-2.729,0.838-3.188,1.445
	c-3.777,4.917-5.709,9.815-5.415,15.993c0.279,5.849,2.126,11.7,4.633,16.916c2.792,5.809,6.382,11.081,11.077,15.506
	c3.582,3.376,7.587,6.314,11.566,9.213c14.151,10.313,32.092,19.283,50.42,16.979c5.933-0.746,11.576-2.82,16.849-5.64
	c1.243-0.664,2.478-1.336,3.651-2.121c0.791-0.529,2.905-2.912,3.7-2.998c1.09-0.119,3.439,2.099,4.462,2.774
	c7.774,5.132,15.344,10.541,22.755,16.169c7.885,5.988,15.383,12.384,22.661,19.081c3.095,2.848,6.171,5.703,9.177,8.646
	c0.7,0.685,2.411,3.207,3.679,3.321c0.803,0.072,1.343-0.613,1.229-1.355C178.5,269.715,175.785,267.784,174.883,266.855"/>
<path id="Fill-10" fill="#06CE8C" d="M680.98,231.66c-3.411-0.745-7.177-0.688-10.651-0.626
	c-18.634,0.253-36.932,9.075-48.84,23.171c-10.139,12-12.926,26.92-14.929,42.002c-0.198,1.498-0.284,2.985-0.396,4.486
	c-0.024,0.322-0.061,0.609-0.099,0.88c-0.788,0.704-1.201,1.525-0.734,2.427c-1.735,3.797-3.203,7.691-4.463,11.707
	c-3.707,11.82-7.478,23.865-5.154,36.294c0.542-6.84,1.684-13.834,3.049-20.562c0.079-0.386,0.163-0.769,0.252-1.151
	c0.009-0.041,0.018-0.081,0.026-0.121c0.483-2.06,1.111-4.059,1.875-6.026c0.009-0.021,0.017-0.042,0.024-0.064
	c0.101-0.259,0.208-0.516,0.313-0.774c0.219-0.533,0.444-1.065,0.683-1.594c0.08-0.18,0.158-0.362,0.232-0.546
	c1.111-2.726,1.582-5.797,2.578-8.618c0.238-0.641,0.487-1.28,0.748-1.916c0.016-0.038,0.031-0.075,0.047-0.112
	c0.706-1.71,1.485-3.4,2.31-5.071c0.448-0.337,0.688-1.172,1.074-1.931c0.08-0.15,0.704-1.147,0.891-1.722
	c0.485-0.939,0.969-1.878,1.458-2.816c-0.015,0.005-0.029,0.011-0.044,0.017c0.489-0.9,0.979-1.797,1.467-2.689
	c0.106-0.196,0.215-0.392,0.323-0.589c0.175-0.313,0.35-0.626,0.523-0.938c1.633-2.921,3.363-5.783,5.16-8.61
	c0.642-1.009,2.174-2.456,2.468-3.588c0.011-0.042,0.014-0.081,0.021-0.122c3.899-5.477,8.389-10.529,13.773-14.532
	c-0.651,0.703-2.034,3.091-2.4,3.563c-1.119,1.447-2.334,2.794-3.554,4.158c-2.185,2.442-4.317,4.963-6.212,7.628
	c-3.466,4.874-6.455,10.003-9.281,15.236c-0.027,0.031-0.057,0.06-0.082,0.091c-1.42,1.751-2.314,4.397-3.337,6.4
	c4.047-1.874,8.521-3.095,12.674-4.759c4.142-1.659,8.17-3.506,12.06-5.676c5.169-2.883,10.532-6.139,15.416-9.823
	c5.598-3.472,10.301-8.251,14.453-13.266c4.912-5.934,9.414-11.919,12.198-19.124c1.367-3.541,2.443-7.232,3.081-10.967
	c0.028-0.163,0.063-0.339,0.103-0.522c0.652-1.29,1.236-2.609,1.726-3.958C682.588,234.766,684.425,232.412,680.98,231.66"/>
<path id="Leave-the-Leaf_x21_" fill="#06CE8C" d="M103.008,256.729c-1.068-1.157-2.269-2.201-3.678-2.945
	c-0.356-0.188-3.01-1.449-3.183-1.172C95.746,253.255,102.688,256.359,103.008,256.729 M115.59,249
	c-0.009,0.049,0.911,1.61,1.162,2.09c0.533,1.021,1.026,2.061,1.489,3.104C117.555,252.353,116.85,250.645,115.59,249
	 M51.245,261.709c-0.886,0.285-1.952-0.839-0.802-1.117c0.93-0.222,0.885-0.275,1.302-1.024c0.339-0.608,0.548-1.35,0.846-1.989
	c0.631-1.354,1.347-2.646,2.226-3.855c1.883-2.594,4.178-4.829,6.752-6.712c4.492-3.287,9.529-6.291,14.872-7.801
	c8.495-2.399,18.164-2.548,26.672-0.884c5.27,1.03,10.085,2.821,13.584,7.064c1.749,2.12,3.122,4.604,3.722,7.34
	c0.157,0.715,0.127,1.51,0.324,2.21c0.301,1.076,0.168,0.79,1.427,0.999c1.375,0.229,2.748,0.462,4.121,0.699
	c3.595,0.622,7.21,1.282,10.713,2.291c1.153,0.332,2.28,0.738,3.382,1.209c0.833,0.356,4.15,1.475,4.553,2.557
	c0.671,1.8-1.577,0.984-2.276,0.592c-0.612-0.344-1.24-0.664-1.877-0.959c-1.605-0.743-3.277-1.317-4.987-1.774
	c-1.848-0.494-3.733-0.863-5.611-1.232c-1.751-0.344-3.51-0.657-5.27-0.957c-0.978-0.166-1.957-0.328-2.936-0.49
	c-0.334-0.055-0.924-0.345-0.879,0.09c-2.058-0.397-4.283-0.34-6.379-0.449c-2.567-0.134-5.145-0.243-7.72-0.163
	c-1.858,0.058-3.717,0.18-5.566,0.429c-1.08,0.146-2.143,0.36-3.203,0.63c-0.582,0.148-2.877,0.463-3.194,0.971
	c0.136-0.218,2.669-0.007,2.992-0.019c1.29-0.048,2.569-0.176,3.854-0.319c2.384-0.267,4.77-0.406,7.162-0.386
	c-0.009,0.42-1.643,1.168-2.042,1.446c-0.895,0.624-1.751,1.305-2.55,2.052c-1.408,1.315-3.093,2.944-4.067,4.502
	c0.287-0.459,1.703-1.057,2.205-1.408c0.805-0.563,1.593-1.162,2.339-1.803c0.689-0.592,1.332-1.231,1.963-1.884
	c0.632-0.654,1.489-2.013,2.32-2.448c0.05-0.026,0.412,0.26,0.618,0.162c0.207-0.098,0.465-0.587,0.518-0.607
	c0.773-0.298,2.241,0.073,3.054,0.11c2.107,0.097,4.212,0.224,6.318,0.34c0.652,0.036,1.207-0.112,1.453,0.369
	c0.262,0.514-0.219,1.862-0.355,2.421c-0.508,2.076-1.41,3.938-2.829,5.546c-2.659,3.013-5.937,5.021-9.64,6.365
	c-14.184,5.146-29.274,7.207-43.455,1.854C59.028,273.461,50.187,269.501,51.245,261.709"/>
<g id="Background-Shape-2" transform="translate(39.000000, 358.000000)" opacity="0.6">
	<path id="Background-Shape" fill="#CBE4F7" d="M661.711,146.152c9.65,65.324-224.374,107.933-425.803,78.197
		C34.478,194.614-57.928,78.493,38.191,16.62C134.31-45.253,652.062,80.828,661.711,146.152z"/>
</g>
<path id="Container" fill="#D4D4D8" d="M146,76h143c4.418,0,8,3.582,8,8v286c0,4.418-3.582,8-8,8H146c-4.418,0-8-3.582-8-8V84
	C138,79.582,141.582,76,146,76z"/>
<circle id="Touch" fill="#FFFFFF" cx="217" cy="344" r="15"/>
<g id="Camera" transform="translate(64.000000, 16.000000)">
	<circle id="Lens" fill="#FFFFFF" cx="140" cy="78" r="2"/>
	<path id="Sensor" fill="#FFFFFF" d="M149,76h17c1.104,0,2,0.896,2,2l0,0c0,1.104-0.896,2-2,2h-17c-1.104,0-2-0.896-2-2l0,0
		C147,76.896,147.896,76,149,76z"/>
</g>
<path id="Background" fill="#FFFFFF" d="M156,104h123c2.209,0,4,1.791,4,4v46c0,2.209-1.791,4-4,4H156c-2.209,0-4-1.791-4-4v-46
	C152,105.791,153.791,104,156,104z"/>
<g id="Text" transform="translate(39.000000, 16.200000)">
	<path id="Name" fill="#DDE3E9" d="M155,104h67c1.657,0,3,1.343,3,3v2.1c0,1.657-1.343,3-3,3h-67c-1.657,0-3-1.343-3-3V107
		C152,105.343,153.343,104,155,104z"/>
	<path id="Name_1_" fill="#DDE3E9" d="M155,117.5h43c1.657,0,3,1.343,3,3v2.1c0,1.657-1.343,3-3,3h-43c-1.657,0-3-1.343-3-3v-2.1
		C152,118.843,153.343,117.5,155,117.5z"/>
</g>
<circle id="Avatar" fill="#82DFF4" cx="173" cy="131" r="12"/>
<path id="Background_1_" fill="#FFFFFF" d="M156,166h123c2.209,0,4,1.791,4,4v34c0,2.209-1.791,4-4,4H156c-2.209,0-4-1.791-4-4v-34
	C152,167.791,153.791,166,156,166z"/>
<g id="Text_1_" transform="translate(39.000000, 12.600000)">
	<path id="Name_2_" fill="#DDE3E9" d="M155,166h67c1.657,0,3,1.343,3,3v0.3c0,1.657-1.343,3-3,3h-67c-1.657,0-3-1.343-3-3V169
		C152,167.343,153.343,166,155,166z"/>
	<path id="Name_3_" fill="#DDE3E9" d="M155,176.5h43c1.657,0,3,1.343,3,3v0.3c0,1.657-1.343,3-3,3h-43c-1.657,0-3-1.343-3-3v-0.3
		C152,177.843,153.343,176.5,155,176.5z"/>
</g>
<circle id="Avatar_1_" fill="#82DFF4" cx="173" cy="187" r="12"/>
<path id="Background_2_" fill="#FFFFFF" d="M156,216h123c2.209,0,4,1.791,4,4v34c0,2.209-1.791,4-4,4H156c-2.209,0-4-1.791-4-4v-34
	C152,217.791,153.791,216,156,216z"/>
<g id="Text_2_" transform="translate(39.000000, 12.600000)">
	<path id="Name_4_" fill="#DDE3E9" d="M155,216h67c1.657,0,3,1.343,3,3v0.3c0,1.657-1.343,3-3,3h-67c-1.657,0-3-1.343-3-3V219
		C152,217.343,153.343,216,155,216z"/>
	<path id="Name_5_" fill="#DDE3E9" d="M155,226.5h43c1.657,0,3,1.343,3,3v0.3c0,1.657-1.343,3-3,3h-43c-1.657,0-3-1.343-3-3v-0.3
		C152,227.843,153.343,226.5,155,226.5z"/>
</g>
<circle id="Avatar_2_" fill="#82DFF4" cx="173" cy="237" r="12"/>
<path id="Background_3_" fill="#FFFFFF" d="M156,266h123c2.209,0,4,1.791,4,4v34c0,2.209-1.791,4-4,4H156c-2.209,0-4-1.791-4-4v-34
	C152,267.791,153.791,266,156,266z"/>
<g id="Text_3_" transform="translate(39.000000, 12.600000)">
	<path id="Name_6_" fill="#DDE3E9" d="M155,266h67c1.657,0,3,1.343,3,3v0.3c0,1.657-1.343,3-3,3h-67c-1.657,0-3-1.343-3-3V269
		C152,267.343,153.343,266,155,266z"/>
	<path id="Name_7_" fill="#DDE3E9" d="M155,276.5h43c1.657,0,3,1.343,3,3v0.3c0,1.657-1.343,3-3,3h-43c-1.657,0-3-1.343-3-3v-0.3
		C152,277.843,153.343,276.5,155,276.5z"/>
</g>
<circle id="Avatar_3_" fill="#82DFF4" cx="173" cy="287" r="12"/>
<g id="Group" transform="translate(0.000000, 218.000000)">
	<path id="Fill-16_1_" fill="#06CE8C" d="M168.14,102c-1.325,0-2.646,0.026-3.969,0.095c-1.008,0.053-2.55-0.156-3.403,0.473
		c-0.887,0.653-0.825,1.989-0.687,2.933c0.732,4.992,2.52,9.418,6.258,12.955c5.757,5.446,12.356,8.212,20.166,9.445
		c5.485,0.865,10.549-0.336,14.588-4.237c2.95,5.476,5.188,11.536,6.312,17.651c0.554,3.019,0.724,6,0.626,9.073
		c-0.063,1.968-0.171,3.933-0.382,5.892c-0.091,0.851-0.525,2.139-0.192,2.943c0.391,0.945,1.71,1.036,2.302,0.23
		c0.493-0.67,0.402-1.986,0.503-2.78c0.168-1.317,0.323-2.637,0.435-3.961c0.18-2.144,0.314-4.292,0.304-6.443
		c-0.022-4.833-1.097-9.687-2.567-14.274c-2.82-8.802-7.396-16.625-14.512-22.763c-4.375-3.774-9.383-5.303-15.065-6.123
		C175.318,102.597,171.723,102,168.14,102"/>
	<path id="Fill-18" fill="#06CE8C" d="M188.571,137c-14.299,0-23.929,11.524-28.482,23.502c-1.717,4.514-2.119,9.472-2.78,14.213
		c-0.212,1.521-0.134,3.839-0.751,5.194c-0.224,0.491-0.738,0.668-0.492,1.338c0.149,0.405,0.44,0.653,0.878,0.734
		c0.9,0.165,2.171-0.814,2.942-1.201c6.396-3.207,10.599-8.167,14.027-14.235c2.125-3.762,4.281-7.666,5.543-11.795
		c0.771-2.522,1.22-5.18,1.484-7.796c0.104-1.03,0.204-2.085,0.198-3.122c-0.006-1.029-0.484-1.572-0.829-2.469
		c4.771-1.806,10.157-2.298,14.99-0.426c4.47,1.73,8.183,5.076,10.262,9.278c0.54,1.093,0.957,2.245,1.26,3.42
		c0.199,0.77,0.208,1.769,0.576,2.465c0.893,1.687,2.771,0.56,2.59-1.012c-0.502-4.382-3.009-8.78-6.213-11.826
		C199.734,139.421,194.257,137,188.571,137"/>
</g>
<path id="Container_1_" fill="#BDBDC6" d="M212,102h143c4.418,0,8,3.582,8,8v286c0,4.418-3.582,8-8,8H212c-4.418,0-8-3.582-8-8V110
	C204,105.582,207.582,102,212,102z"/>
<circle id="Touch_1_" fill="#FFFFFF" cx="283" cy="370" r="15"/>
<g id="Camera_1_" transform="translate(112.000000, 16.000000)">
	<circle id="Lens_1_" fill="#FFFFFF" cx="158" cy="104" r="2"/>
	<path id="Sensor_1_" fill="#FFFFFF" d="M167,102h17c1.104,0,2,0.896,2,2l0,0c0,1.104-0.896,2-2,2h-17c-1.104,0-2-0.896-2-2l0,0
		C165,102.896,165.896,102,167,102z"/>
</g>
<g id="Row_4_">
	<path id="Container_2_" fill="#FFFFFF" d="M222,130h123c2.209,0,4,1.791,4,4v46c0,2.209-1.791,4-4,4H222c-2.209,0-4-1.791-4-4v-46
		C218,131.791,219.791,130,222,130z"/>
	<g id="Text-Stuff" transform="translate(9.000000, 16.200000)">
		<path id="Label" fill="#DDE3E9" d="M221,130h67c1.657,0,3,1.343,3,3v2.1c0,1.657-1.343,3-3,3h-67c-1.657,0-3-1.343-3-3V133
			C218,131.343,219.343,130,221,130z"/>
		<path id="Label_1_" fill="#DDE3E9" d="M221,143.5h43c1.657,0,3,1.343,3,3v2.1c0,1.657-1.343,3-3,3h-43c-1.657,0-3-1.343-3-3v-2.1
			C218,144.843,219.343,143.5,221,143.5z"/>
	</g>
	<g id="Check" transform="translate(110.000000, 20.000000)">
		<circle id="Background_4_" fill="#DDE3E9" cx="225" cy="137" r="7"/>
		<circle id="Indicator" fill="#F2F2F2" cx="225" cy="137" r="3"/>
	</g>
</g>
<path id="Background_5_" fill="#FFFFFF" d="M222,192h123c2.209,0,4,1.791,4,4v34c0,2.209-1.791,4-4,4H222c-2.209,0-4-1.791-4-4v-34
	C218,193.791,219.791,192,222,192z"/>
<g id="Text_4_" transform="translate(39.000000, 12.600000)">
	<path id="Name_8_" fill="#DDE3E9" d="M221,192h67c1.657,0,3,1.343,3,3v0.3c0,1.657-1.343,3-3,3h-67c-1.657,0-3-1.343-3-3V195
		C218,193.343,219.343,192,221,192z"/>
	<path id="Name_9_" fill="#DDE3E9" d="M221,202.5h43c1.657,0,3,1.343,3,3v0.3c0,1.657-1.343,3-3,3h-43c-1.657,0-3-1.343-3-3v-0.3
		C218,203.843,219.343,202.5,221,202.5z"/>
</g>
<circle id="Avatar_4_" fill="#82DFF4" cx="239" cy="213" r="12"/>
<g id="Row_6_" transform="translate(0.000000, 112.000000)">
	<path id="Container_3_" fill="#FFFFFF" d="M222,130h123c2.209,0,4,1.791,4,4v34c0,2.209-1.791,4-4,4H222c-2.209,0-4-1.791-4-4v-34
		C218,131.791,219.791,130,222,130z"/>
	<g id="Text-Stuff_1_" transform="translate(9.000000, 12.600000)">
		<path id="Label_2_" fill="#DDE3E9" d="M221,130h67c1.657,0,3,1.343,3,3v0.3c0,1.657-1.343,3-3,3h-67c-1.657,0-3-1.343-3-3V133
			C218,131.343,219.343,130,221,130z"/>
		<path id="Label_3_" fill="#AFB9C5" d="M221,140.5h43c1.657,0,3,1.343,3,3v0.3c0,1.657-1.343,3-3,3h-43c-1.657,0-3-1.343-3-3v-0.3
			C218,141.843,219.343,140.5,221,140.5z"/>
	</g>
	<g id="Check_1_" transform="translate(110.000000, 14.000000)">
		<circle id="Background_6_" fill="#DDE3E9" cx="225" cy="137" r="7"/>
		<circle id="Indicator_1_" fill="#F2F2F2" cx="225" cy="137" r="3"/>
	</g>
</g>
<path id="Background_7_" fill="#FFFFFF" d="M222,292h123c2.209,0,4,1.791,4,4v34c0,2.209-1.791,4-4,4H222c-2.209,0-4-1.791-4-4v-34
	C218,293.791,219.791,292,222,292z"/>
<g id="Text_5_" transform="translate(39.000000, 12.600000)">
	<path id="Name_10_" fill="#DDE3E9" d="M221,292h67c1.657,0,3,1.343,3,3v0.3c0,1.657-1.343,3-3,3h-67c-1.657,0-3-1.343-3-3V295
		C218,293.343,219.343,292,221,292z"/>
	<path id="Name_11_" fill="#DDE3E9" d="M221,302.5h43c1.657,0,3,1.343,3,3v0.3c0,1.657-1.343,3-3,3h-43c-1.657,0-3-1.343-3-3v-0.3
		C218,303.843,219.343,302.5,221,302.5z"/>
</g>
<circle id="Avatar_5_" fill="#82DFF4" cx="239" cy="313" r="12"/>
<path id="Container_4_" fill="#E0E1E2" d="M278,127h319c4.418,0,8,3.582,8,8v330c0,4.418-3.582,8-8,8H278c-4.418,0-8-3.582-8-8V135
	C270,130.582,273.582,127,278,127z"/>
<path id="Background_8_" fill="#FFFFFF" d="M527,170h54c4.418,0,8,3.582,8,8v65c0,4.418-3.582,8-8,8h-54c-4.418,0-8-3.582-8-8v-65
	C519,173.582,522.582,170,527,170z"/>
<circle id="Avatar_6_" fill="#82DFF4" cx="554" cy="201" r="16"/>
<path id="Name_12_" fill="#F4A8BD" d="M532,221h44c1.657,0,3,1.343,3,3l0,0c0,1.657-1.343,3-3,3h-44c-1.657,0-3-1.343-3-3l0,0
	C529,222.343,530.343,221,532,221z"/>
<path id="Name_13_" fill="#F4A8BD" d="M540,231h28c1.657,0,3,1.343,3,3l0,0c0,1.657-1.343,3-3,3h-28c-1.657,0-3-1.343-3-3l0,0
	C537,232.343,538.343,231,540,231z"/>
<path id="Header" fill="#767489" d="M278,127h319c4.418,0,8,3.582,8,8v19H270v-19C270,130.582,273.582,127,278,127z"/>
<circle id="buttons" fill="#F7374E" cx="283" cy="141" r="4"/>
<circle id="buttons_1_" fill="#E7ED07" cx="295" cy="141" r="4"/>
<circle id="buttons_2_" fill="#07ED1D" cx="307" cy="141" r="4"/>
<g id="Components" transform="translate(249.000000, 132.000000)">
	<path id="Background_9_" fill="#FFFFFF" d="M278,127h54c4.418,0,8,3.582,8,8v178c0,4.418-3.582,8-8,8h-54c-4.418,0-8-3.582-8-8V135
		C270,130.582,273.582,127,278,127z"/>
	<g id="Rows_2_" transform="translate(18.000000, 18.000000)">
		<path id="Data" fill="#DDE3E9" d="M274,127h26c2.209,0,4,1.791,4,4v18c0,2.209-1.791,4-4,4h-26c-2.209,0-4-1.791-4-4v-18
			C270,128.791,271.791,127,274,127z"/>
		<path id="Data_1_" fill="#AFB9C5" d="M274,161h26c2.209,0,4,1.791,4,4v17c0,2.209-1.791,4-4,4h-26c-2.209,0-4-1.791-4-4v-17
			C270,162.791,271.791,161,274,161z"/>
		<path id="Data_2_" fill="#DDE3E9" d="M274,194h26c2.209,0,4,1.791,4,4v17c0,2.209-1.791,4-4,4h-26c-2.209,0-4-1.791-4-4v-17
			C270,195.791,271.791,194,274,194z"/>
		<path id="Data_3_" fill="#DDE3E9" d="M274,260h26c2.209,0,4,1.791,4,4v17c0,2.209-1.791,4-4,4h-26c-2.209,0-4-1.791-4-4v-17
			C270,261.791,271.791,260,274,260z"/>
		<path id="Data_4_" fill="#C5CFD6" d="M274,227h26c2.209,0,4,1.791,4,4v17c0,2.209-1.791,4-4,4h-26c-2.209,0-4-1.791-4-4v-17
			C270,228.791,271.791,227,274,227z"/>
	</g>
</g>
<path id="Container_5_" fill="#FFFFFF" d="M290,171h217c2.209,0,4,1.791,4,4v39c0,2.209-1.791,4-4,4H290c-2.209,0-4-1.791-4-4v-39
	C286,172.791,287.791,171,290,171z"/>
<g id="Text-Stuff_2_" transform="translate(9.000000, 14.100000)">
	<path id="Label_4_" fill="#DDE3E9" d="M289,171h161c1.657,0,3,1.343,3,3v1.05c0,1.657-1.343,3-3,3H289c-1.657,0-3-1.343-3-3V174
		C286,172.343,287.343,171,289,171z"/>
	<path id="Label_5_" fill="#DDE3E9" d="M289,182.75h106.096c1.657,0,3,1.343,3,3v1.05c0,1.657-1.343,3-3,3H289c-1.657,0-3-1.343-3-3
		v-1.05C286,184.093,287.343,182.75,289,182.75z"/>
</g>
<g id="Check_2_" transform="translate(193.954198, 16.500000)">
	<circle id="Background_10_" fill="#F7F294" cx="293" cy="178" r="7"/>
	<circle id="Indicator_2_" fill="#F7F294" cx="293" cy="178" r="3"/>
</g>
<path id="Container_6_" fill="#FFFFFF" d="M290,226h217c2.209,0,4,1.791,4,4v31c0,2.209-1.791,4-4,4H290c-2.209,0-4-1.791-4-4v-31
	C286,227.791,287.791,226,290,226z"/>
<g id="Text-Stuff_3_" transform="translate(9.000000, 11.700000)">
	<path id="Label_6_" fill="#DDE3E9" d="M288.925,226h161.15c1.615,0,2.925,1.31,2.925,2.925l0,0c0,1.615-1.31,2.925-2.925,2.925
		h-161.15c-1.615,0-2.925-1.31-2.925-2.925l0,0C286,227.31,287.31,226,288.925,226z"/>
	<path id="Label_7_" fill="#DDE3E9" d="M288.925,235.75h106.246c1.615,0,2.925,1.31,2.925,2.925l0,0c0,1.615-1.31,2.925-2.925,2.925
		H288.925c-1.615,0-2.925-1.31-2.925-2.925l0,0C286,237.06,287.31,235.75,288.925,235.75z"/>
</g>
<g id="Check_3_" transform="translate(193.954198, 12.500000)">
	<circle id="Background_11_" fill="#DDE3E9" cx="293" cy="233" r="7"/>
	<circle id="Indicator_3_" fill="#F2F2F2" cx="293" cy="233" r="3"/>
</g>
<path id="Container_7_" fill="#FFFFFF" d="M290,273h217c2.209,0,4,1.791,4,4v31c0,2.209-1.791,4-4,4H290c-2.209,0-4-1.791-4-4v-31
	C286,274.791,287.791,273,290,273z"/>
<g id="Text-Stuff_4_" transform="translate(9.000000, 11.700000)">
	<path id="Label_8_" fill="#DDE3E9" d="M288.925,273h161.15c1.615,0,2.925,1.31,2.925,2.925l0,0c0,1.615-1.31,2.925-2.925,2.925
		h-161.15c-1.615,0-2.925-1.31-2.925-2.925l0,0C286,274.31,287.31,273,288.925,273z"/>
	<path id="Label_9_" fill="#DDE3E9" d="M288.925,282.75h106.246c1.615,0,2.925,1.31,2.925,2.925l0,0c0,1.615-1.31,2.925-2.925,2.925
		H288.925c-1.615,0-2.925-1.31-2.925-2.925l0,0C286,284.06,287.31,282.75,288.925,282.75z"/>
</g>
<circle id="Background_12_" fill="#DDE3E9" cx="486.954" cy="292.5" r="7"/>
<circle id="Indicator_4_" fill="#16F721" cx="486.954" cy="292.5" r="3"/>
<g id="Row_11_" transform="translate(0.000000, 243.000000)">
	<path id="Container_8_" fill="#FFFFFF" d="M290,171h217c2.209,0,4,1.791,4,4v31c0,2.209-1.791,4-4,4H290c-2.209,0-4-1.791-4-4v-31
		C286,172.791,287.791,171,290,171z"/>
	<g id="Text-Stuff_5_" transform="translate(9.000000, 11.700000)">
		<path id="Label_10_" fill="#DDE3E9" d="M288.925,171h161.15c1.615,0,2.925,1.31,2.925,2.925l0,0c0,1.615-1.31,2.925-2.925,2.925
			h-161.15c-1.615,0-2.925-1.31-2.925-2.925l0,0C286,172.31,287.31,171,288.925,171z"/>
		<path id="Label_11_" fill="#DDE3E9" d="M288.925,180.75h106.246c1.615,0,2.925,1.31,2.925,2.925l0,0
			c0,1.615-1.31,2.925-2.925,2.925H288.925c-1.615,0-2.925-1.31-2.925-2.925l0,0C286,182.06,287.31,180.75,288.925,180.75z"/>
	</g>
	<g id="Check_5_" transform="translate(193.954198, 12.500000)">
		<circle id="Background_13_" fill="#DDE3E9" cx="293" cy="178" r="7"/>
		<circle id="Indicator_5_" fill="#F2F2F2" cx="293" cy="178" r="3"/>
	</g>
</g>
<g id="Row_12_" transform="translate(0.000000, 196.000000)">
	<path id="Container_9_" fill="#FFFFFF" d="M290,171h217c2.209,0,4,1.791,4,4v31c0,2.209-1.791,4-4,4H290c-2.209,0-4-1.791-4-4v-31
		C286,172.791,287.791,171,290,171z"/>
	<g id="Text-Stuff_6_" transform="translate(9.000000, 11.700000)">
		<path id="Label_12_" fill="#DDE3E9" d="M288.925,171h161.15c1.615,0,2.925,1.31,2.925,2.925l0,0c0,1.615-1.31,2.925-2.925,2.925
			h-161.15c-1.615,0-2.925-1.31-2.925-2.925l0,0C286,172.31,287.31,171,288.925,171z"/>
		<path id="Label_13_" fill="#DDE3E9" d="M288.925,180.75h106.246c1.615,0,2.925,1.31,2.925,2.925l0,0
			c0,1.615-1.31,2.925-2.925,2.925H288.925c-1.615,0-2.925-1.31-2.925-2.925l0,0C286,182.06,287.31,180.75,288.925,180.75z"/>
	</g>
	<g id="Check_6_" transform="translate(193.954198, 12.500000)">
		<circle id="Background_14_" fill="#DDE3E9" cx="293" cy="178" r="7"/>
		<circle id="Indicator_6_" fill="#F2F2F2" cx="293" cy="178" r="3"/>
	</g>
</g>
<g id="Row_13_" transform="translate(0.000000, 149.000000)">
	<path id="Container_10_" fill="#FFFFFF" d="M290,171h217c2.209,0,4,1.791,4,4v31c0,2.209-1.791,4-4,4H290c-2.209,0-4-1.791-4-4v-31
		C286,172.791,287.791,171,290,171z"/>
	<g id="Text-Stuff_7_" transform="translate(9.000000, 11.700000)">
		<path id="Label_14_" fill="#DDE3E9" d="M288.925,171h161.15c1.615,0,2.925,1.31,2.925,2.925l0,0c0,1.615-1.31,2.925-2.925,2.925
			h-161.15c-1.615,0-2.925-1.31-2.925-2.925l0,0C286,172.31,287.31,171,288.925,171z"/>
		<path id="Label_15_" fill="#DDE3E9" d="M288.925,180.75h106.246c1.615,0,2.925,1.31,2.925,2.925l0,0
			c0,1.615-1.31,2.925-2.925,2.925H288.925c-1.615,0-2.925-1.31-2.925-2.925l0,0C286,182.06,287.31,180.75,288.925,180.75z"/>
	</g>
	<g id="Check_7_" transform="translate(193.954198, 12.500000)">
		<circle id="Background_15_" fill="#DDE3E9" cx="293" cy="178" r="7"/>
		<circle id="Indicator_7_" fill="#F2F2F2" cx="293" cy="178" r="3"/>
	</g>
</g>
<path id="Fill-1" fill="#63F7C2" d="M687.985,297.375c-3.944-2.675-9.189-3.375-13.909-3.375c-18.437,0-35.765,6.84-50.735,17.032
	c-8.202,5.584-15.541,12.696-22.02,20.101c-3.739,4.274-7.073,8.898-9.434,14.041c-1.593,3.472-2.687,7.088-3.428,10.817
	c-0.903,4.547-1.62,9.186-1.945,13.807c-0.128,1.82-1.186,11.478,1.841,11.641c-0.018,0.238-0.021,0.465-0.003,0.669
	c-6.57,10.273-10.63,22.313-14.395,33.729c-3.275,9.934-6.193,19.951-8.088,30.228c-2.495,13.53-4.133,27.263-4.912,40.987
	c-0.167,2.949-0.282,5.9-0.381,8.854c-0.084,2.52-0.169,5.038-0.252,7.558c-0.092,2.822-0.589,6.073-0.14,8.879
	c0.391,2.444,2.506,2.074,2.6-0.357c0.112-2.938,0.094-5.881,0.223-8.819c0.171-3.901,0.347-7.803,0.538-11.702
	c1.329-27.092,6.314-53.786,15.516-79.377c3.724-10.355,7.99-20.159,13.474-29.739c4.821-8.423,10.621-16.577,16.549-24.172
	c5.762-7.38,11.752-14.59,18.812-20.843c5.729-5.074,12.03-9.495,18.508-13.608c8.228-5.224,16.439-10.321,25.352-14.331
	c4.633-2.084,9.353-3.951,14.021-5.951c0.841-0.36,1.741-0.709,2.549-1.125C691.021,300.925,690.133,298.832,687.985,297.375"/>
<path id="Fill-20" fill="#06CE8C" d="M613.817,392c7.478,0,14.132,0.972,21.021,3.943c5.947,2.564,11.367,5.959,16.629,9.656
	c7.401,5.198,13.231,11.249,17.313,19.266c2.438,4.789,4.227,11.566,2.589,16.79c-1.929,6.152-7.225,11.283-14.199,10.199
	c-4.313-0.67-8.267-3.524-11.544-6.212c-3.922-3.214-7.061-7.079-9.652-11.372c-4.229-7.003-6.713-14.92-10.305-22.237
	c-1.704-3.473-3.352-6.971-5.393-10.271c-1.011-1.634-2.086-3.253-3.619-4.468c-0.82-0.649-4.278-1.774-2.956-3.233
	c-19.391,0.255-36.568,15.146-40.291,33.58c-0.347,1.718-0.617,3.45-0.903,5.179c-0.181,1.092-0.108,5.117-1.084,5.814
	c-2.152,1.538-1.247-3.135-1.155-3.808c0.239-1.738,0.493-3.477,0.761-5.211c1.453-9.434,5.653-18.204,12.657-24.932
	C591.694,396.99,602.501,392,613.817,392"/>
<path id="Fill-19" fill="#63F7C2" d="M74.938,368.736c18.667,31.315,40.407,61.638,53.463,95.876
	c-0.526-4.035-1.084-8.066-1.708-12.093c-3.313-21.341-7.43-42.525-11.756-63.685c-2.204-10.773-4.534-21.507-6.924-32.241
	c-1.285-5.764-2.555-11.533-3.867-17.292c-0.317-1.396-0.591-3.833-0.988-6.302c12.688,41.637,24.924,83.305,33.874,125.942
	c1.174,5.596,2.174,11.182,2.993,16.758c0.28-1.272,0.556-2.545,0.857-3.813c3.621-15.207,9.053-30.293,15.521-44.513
	c3.092-6.8,6.644-13.45,10.825-19.647c2.608-3.863,8.757-8.456,11.136-12.412c-13.01,23.861-17.707,53.717-25.219,79.659
	c-1.833,6.33-3.678,12.65-5.486,18.981c11.328-22.718,28.904-41.384,53.341-49.473c-29.58,19.545-47.322,53.771-59.278,88.777
	c-0.04,0.415-0.086,0.83-0.127,1.246c3.519-6.677,7.95-12.717,13.956-16.946c12.855-9.055,27.116-6.417,39.586,1.351
	c-9.787-6.222-27.475-0.557-35.709,5.767c-5.896,4.526-10.934,10.599-15.309,16.522c-1.048,1.421-2.479,3.077-3.989,4.846
	c-2.118,13.75-5.57,27.407-10.458,40.955c0.807-3.889,0.224-10.108,0.447-13.007c0.024-0.313,0.044-0.628,0.068-0.94
	c-0.743,2.966-1.46,5.898-2.151,8.784c1.374-5.506,2.12-11.254,2.703-17.061c0.15-2.496,0.296-4.991,0.451-7.487
	c-0.049-4.735-0.244-9.49-0.574-14.253c-1.169-4.629-2.479-8.994-3.56-12.625c-3.898-13.101-9.612-25.651-16.646-37.36
	c-6.417-10.685-14.098-20.363-22.966-29.116c-4.78-4.717-9.783-9.21-14.716-13.765c-1.784-1.647-4.972-5.696-7.729-7.807
	c20.081,11.07,40.749,23.047,55.397,40.885c-1.717-6.596-3.583-13.097-5.556-19.469C104.831,431.454,92.191,397.952,74.938,368.736z
	"/>
<path id="Base" fill="#767489" d="M95,546c0,35.898,2.843,65,41,65s41-29.102,41-65"/>
<path id="Value" fill="#F4F44D" d="M523,84L523,84c1.657,0,3,1.343,3,3v19c0,1.657-1.343,3-3,3l0,0c-1.657,0-3-1.343-3-3V87
	C520,85.343,521.343,84,523,84z"/>
<path id="Value_1_" fill="#F4375B" d="M537,68L537,68c1.657,0,3,1.343,3,3v35c0,1.657-1.343,3-3,3l0,0c-1.657,0-3-1.343-3-3V71
	C534,69.343,535.343,68,537,68z"/>
<path id="Value_2_" fill="#8CF4A9" d="M551,60L551,60c1.657,0,3,1.343,3,3v43c0,1.657-1.343,3-3,3l0,0c-1.657,0-3-1.343-3-3V63
	C548,61.343,549.343,60,551,60z"/>
<path id="Value_3_" fill="#6FB5EF" d="M565,68L565,68c1.657,0,3,1.343,3,3v35c0,1.657-1.343,3-3,3l0,0c-1.657,0-3-1.343-3-3V71
	C562,69.343,563.343,68,565,68z"/>
<path id="Value_4_" fill="#EF9467" d="M579,52L579,52c1.657,0,3,1.343,3,3v51c0,1.657-1.343,3-3,3l0,0c-1.657,0-3-1.343-3-3V55
	C576,53.343,577.343,52,579,52z"/>
<path id="Value_5_" fill="#E8DDE3" d="M28,358.256C28,347.117,37.002,338,48,338v20.256L34.332,373
	C30.444,369.396,28,364.107,28,358.256z"/>
<path id="Value_6_" fill="#F462AB" d="M47.471,358h20.197c0,5.221-2.13,10.113-5.497,13.668C58.468,375.557,53.195,378,47.471,378
	c-5.272,0-10.099-2.109-13.803-5.443L47.471,358z"/>
<path id="Value_7_" fill="#EFA0C4" d="M68,358c0-10.998-9.002-20-20-20v20H68z M38,338l8,18l-18-8
	C29.78,343.334,33.777,339.78,38,338z"/>
<path id="Value_8_" fill="#E8DDE3" d="M678.767,367.18c-1.922,2.039-4.644,3.32-7.671,3.32c-5.818,0-10.534-4.701-10.534-10.5
	s4.716-10.5,10.534-10.5V330C654.546,330,641,343.503,641,360s13.546,30,30.096,30c8.692,0,16.549-3.666,21.904-9.498
	L678.767,367.18z"/>
<path id="Value_9_" fill="#F462AB" d="M671,330v19.5c5.799,0,10.5,4.701,10.5,10.5H701C701,343.503,687.497,330,671,330z"/>
<path id="Value_10_" fill="#EFA0C4" d="M681.097,360c0,3.407-1.604,6.436-4.097,8.391L689.262,384
	c7.138-5.588,11.738-14.251,11.738-24H681.097z"/>
<path id="Value_11_" fill="#E8DDE3" d="M488.051,91.504c-1.478,1.564-3.571,2.546-5.9,2.546c-4.476,0-8.103-3.604-8.103-8.05
	s3.627-8.05,8.103-8.05V63C469.42,63,459,73.353,459,86s10.42,23,23.15,23c6.687,0,12.73-2.811,16.85-7.282L488.051,91.504z"/>
<path id="Value_12_" fill="#F462AB" d="M482,63v14.95c4.446,0,8.05,3.604,8.05,8.05H505C505,73.353,494.647,63,482,63z"/>
<path id="Value_13_" fill="#EFA0C4" d="M490.072,86c0,2.555-1.203,4.827-3.072,6.293L496.196,104C501.55,99.809,505,93.312,505,86
	H490.072z"/>
<path id="Fill-35" fill="#C5CFD6" d="M124.007,108.986c-0.004,0.01-0.008,0.02-0.014,0.032
	C123.999,109.008,124.007,108.968,124.007,108.986"/>
<path id="Fill-37" fill="#C5CFD6" d="M123.998,109.001c0,0.002-0.002,0.006-0.002,0.01
	C123.996,109.001,124.014,108.972,123.998,109.001"/>
<path id="Fill-39" fill="#C5CFD6" d="M124.067,108.832c-0.014,0.04-0.032,0.078-0.048,0.118c0.008-0.02,0.016-0.036,0.024-0.056
	C123.835,109.414,123.967,109.076,124.067,108.832"/>
<path id="Fill-41" fill="#C5CFD6" d="M124.022,108.953c-0.008,0.018-0.016,0.038-0.024,0.056
	C123.94,109.121,124.022,108.953,124.022,108.953"/>
<polygon id="Fill-43" fill="#C5CFD6" points="124,109.001 124,109.001 124,108.999 "/>
<path id="Fill-45" fill="#C5CFD6" d="M123.999,109.002c0-0.002,0-0.002,0.002-0.004C123.999,109,123.999,109,123.999,109.002"/>
<path id="Fill-47" fill="#C5CFD6" d="M123.99,109.017C123.978,109.041,124.045,108.924,123.99,109.017"/>
<path id="Fill-49" fill="#C5CFD6" d="M123.998,109.002l0.004-0.004C124,109,124,109.002,123.998,109.002"/>
<path id="Photo-Background" fill="#F7F7E7" d="M80,57h87c2.209,0,4,1.791,4,4v55c0,2.209-1.791,4-4,4H80c-2.209,0-4-1.791-4-4V61
	C76,58.791,77.791,57,80,57z"/>
<polygon id="Mountains" fill="#BECC06" points="112,75 84,120 140,120 "/>
<polygon id="Mountains_1_" fill="#EDEFAC" points="139.5,87 115,120 164,120 "/>
<circle id="Sun" fill="#FCF506" cx="150" cy="78" r="9"/>
<path id="Fill-35_1_" fill="#C5CFD6" d="M600.993,535.986c0.004,0.01,0.008,0.02,0.014,0.032
	C601.001,536.008,600.993,535.969,600.993,535.986"/>
<path id="Fill-37_1_" fill="#C5CFD6" d="M601.002,536.002c0,0.002,0.002,0.006,0.002,0.01
	C601.004,536.002,600.986,535.972,601.002,536.002"/>
<path id="Fill-39_1_" fill="#C5CFD6" d="M600.933,535.832c0.015,0.04,0.032,0.078,0.048,0.118c-0.008-0.02-0.016-0.036-0.023-0.056
	C601.165,536.414,601.033,536.076,600.933,535.832"/>
<path id="Fill-41_1_" fill="#C5CFD6" d="M600.978,535.953c0.008,0.018,0.017,0.038,0.024,0.056
	C601.06,536.121,600.978,535.953,600.978,535.953"/>
<polygon id="Fill-43_1_" fill="#C5CFD6" points="601,536.001 601,536.001 601,535.999 "/>
<path id="Fill-45_1_" fill="#C5CFD6" d="M601.001,536.002c0-0.002,0-0.002-0.002-0.004C601.001,536,601.001,536,601.001,536.002"/>
<path id="Fill-47_1_" fill="#C5CFD6" d="M601.011,536.017C601.022,536.04,600.954,535.925,601.011,536.017"/>
<path id="Fill-49_1_" fill="#C5CFD6" d="M601.002,536.002l-0.004-0.004C601,536,601,536.002,601.002,536.002"/>
<path id="Photo-Background_1_" fill="#F7F7E7" d="M668,459H534c-2.209,0-4,1.791-4,4v86c0,2.209,1.791,4,4,4h134
	c2.209,0,4-1.791,4-4v-86C672,460.791,670.209,459,668,459z"/>
<polygon id="Mountains_2_" fill="#BECC06" points="619.274,486 660.329,553 578.219,553 "/>
<polygon id="Mountains_3_" fill="#EDEFAC" points="576.944,503.946 613.239,553 540.649,553 "/>
<circle id="Sun_1_" fill="#FCF506" cx="561.5" cy="490.5" r="13.5"/>
</svg>
